<svg width="80" height="80" viewBox="0 0 80 80" fill="none" xmlns="http://www.w3.org/2000/svg">
<g clip-path="url(#clip0_87_484)">
<path d="M79.2311 66.4999C78.6507 67.608 77.7661 68.5273 76.6811 69.1499C76.0308 69.4779 75.3187 69.6653 74.5911 69.6999H60.4811C59.9111 69.6999 59.3011 69.7899 59.8911 68.8699C60.1872 68.4013 60.3561 67.8636 60.3811 67.3099C60.3811 66.3099 60.9411 66.3099 61.6911 66.3099C65.7578 66.3099 69.8211 66.3099 73.8811 66.3099C75.5011 66.3099 75.8811 65.9299 75.8811 64.3099C75.8811 49.0232 75.8811 33.7299 75.8811 18.4299C75.8811 17.4299 75.5211 17.2899 74.6611 17.2899C58.6611 17.2899 42.6378 17.2899 26.5911 17.2899C19.4611 17.2899 12.3311 17.2899 5.20112 17.2899C4.27112 17.2899 3.93113 17.5199 3.93113 18.5199C3.93113 33.7399 3.93113 48.9666 3.93113 64.1999C3.93113 65.8699 4.41112 66.3399 6.06112 66.3399C10.0611 66.3399 14.1211 66.3399 18.1511 66.3399C18.9211 66.3399 19.4511 66.4499 19.4711 67.3399C19.5422 67.7272 19.6632 68.1037 19.8311 68.4599C20.2011 69.7099 20.1911 69.7099 18.8311 69.7099C14.3911 69.7099 9.96112 69.6599 5.53113 69.7099C4.22393 69.6825 2.97698 69.155 2.04689 68.2361C1.1168 67.3172 0.574335 66.0767 0.531125 64.7699C0.591125 45.0799 0.531125 25.3899 0.531125 5.6999C0.496669 5.0565 0.595156 4.4129 0.820442 3.80925C1.04573 3.2056 1.39298 2.65484 1.84054 2.19133C2.2881 1.72782 2.82636 1.3615 3.42176 1.11522C4.01716 0.868945 4.65691 0.74799 5.30113 0.759902C5.53113 0.759902 5.76113 0.759902 6.00112 0.759902C28.6678 0.759902 51.3345 0.759902 74.0011 0.759902C74.8811 0.705886 75.7605 0.873486 76.5589 1.24735C77.3573 1.62122 78.0492 2.18942 78.5711 2.8999C78.8111 3.2299 78.6411 3.7999 79.2111 3.8999L79.2311 66.4999ZM39.8311 13.8699H71.0011C72.4011 13.8699 73.7911 13.8699 75.1911 13.8699C75.7011 13.8699 75.9011 13.7099 75.9011 13.1799C75.9011 10.6899 75.9011 8.1799 75.9011 5.6899C75.9091 5.48156 75.8758 5.2737 75.8032 5.07829C75.7305 4.88288 75.6198 4.70379 75.4776 4.55134C75.3354 4.39889 75.1644 4.27609 74.9745 4.19003C74.7846 4.10397 74.5795 4.05635 74.3711 4.0499C73.9715 4.0248 73.5707 4.0248 73.1711 4.0499H6.42112C4.50112 4.0499 3.98113 4.5699 3.98113 6.4799V12.5699C3.98113 13.8899 3.98113 13.8899 5.26113 13.8899L39.8311 13.8699Z" fill="#394620"/>
<path d="M39.4315 79.5C37.8869 77.7752 36.8488 75.6574 36.4315 73.38C36.2181 72.9007 36.0798 72.3914 36.0215 71.87C36.0215 71.43 36.1815 71.28 36.6015 71.29C38.8615 71.29 41.1248 71.29 43.3915 71.29C43.9315 71.29 44.0015 71.54 43.8915 71.98C43.1715 74.68 42.6215 77.47 40.4415 79.51L39.4315 79.5Z" fill="#66C206"/>
<path d="M22.8411 20.5H34.6311C36.2511 20.5 36.7911 21.0599 36.7911 22.7099V28.2999C36.7911 29.7199 36.1511 30.36 34.7111 30.36H10.6411C9.39105 30.36 8.84105 29.7999 8.83105 28.5499V22.5C8.83105 20.77 9.14105 20.45 10.8311 20.45L22.8411 20.5Z" fill="#66C206"/>
<path d="M57.2315 20.4999H69.0415C70.7915 20.4999 71.0415 20.7699 71.0415 22.4999C71.0415 24.5399 71.0415 26.5733 71.0415 28.5999C71.0415 29.7799 70.5215 30.3299 69.3815 30.3299H45.0115C44.7664 30.3585 44.5181 30.3304 44.2856 30.2478C44.0531 30.1652 43.8428 30.0302 43.6707 29.8534C43.4987 29.6765 43.3696 29.4625 43.2935 29.2278C43.2173 28.9931 43.1961 28.7441 43.2315 28.4999C43.2315 26.3699 43.2315 24.2299 43.2315 22.0999C43.2315 20.9399 43.8115 20.4399 45.0915 20.4399C49.1215 20.4399 53.2315 20.4999 57.2315 20.4999Z" fill="#66C206"/>
<path d="M57.1614 33.5H69.1614C70.6114 33.5 71.0314 33.8 71.0814 34.92C71.1614 36.44 70.8314 36.54 69.3214 36.92C69.1222 36.9451 68.9206 36.9451 68.7214 36.92H45.6314C45.2241 36.9709 44.8106 36.9178 44.4294 36.7657C44.0482 36.6135 43.7117 36.3673 43.4514 36.05C43.2594 35.8013 43.1503 35.4987 43.1396 35.1847C43.1288 34.8707 43.2169 34.5612 43.3914 34.3C43.5132 34.0403 43.7119 33.8243 43.9605 33.6812C44.2091 33.5382 44.4957 33.4749 44.7814 33.5C48.9114 33.5 53.0314 33.5 57.1614 33.5Z" fill="#394620"/>
<path d="M22.7712 33.5H34.6512C36.0512 33.5 36.7612 34.06 36.7812 35.16C36.7338 35.6569 36.5024 36.1181 36.1323 36.453C35.7623 36.7879 35.2803 36.9723 34.7812 36.97C34.6112 36.97 34.4512 36.97 34.2812 36.97H11.0812C9.43125 36.97 8.76125 36.38 8.82125 34.97C8.80216 34.7643 8.83019 34.5569 8.90322 34.3637C8.97626 34.1704 9.09237 33.9963 9.24274 33.8546C9.39311 33.7129 9.57379 33.6073 9.77106 33.5459C9.96834 33.4844 10.177 33.4688 10.3812 33.5H22.7712Z" fill="#394620"/>
<path d="M53.1216 59.87C51.7316 59.87 50.3316 59.87 48.9416 59.87C48.8056 59.8902 48.6667 59.8783 48.5362 59.8352C48.4056 59.7921 48.2869 59.719 48.1897 59.6218C48.0925 59.5246 48.0194 59.4059 47.9763 59.2754C47.9332 59.1448 47.9213 59.006 47.9416 58.87C47.9416 57.74 47.9416 56.61 47.8516 55.48C47.8516 55 47.9116 54.74 48.4816 54.75C51.0716 54.75 53.6616 54.75 56.2616 54.75C56.4225 54.7335 56.5842 54.7734 56.7191 54.8627C56.8541 54.952 56.9539 55.0853 57.0016 55.24C57.4763 56.5339 57.8115 57.8748 58.0016 59.24C58.1316 59.83 57.6516 59.84 57.2316 59.84L53.1216 59.87Z" fill="#66C206"/>
<path d="M26.8713 59.8701H22.5913C22.1813 59.8701 21.7713 59.7801 21.9213 59.2801C22.3213 57.9101 22.3113 56.4501 23.0013 55.1401C23.0545 55.0066 23.1523 54.8957 23.2782 54.8264C23.404 54.7571 23.5501 54.7337 23.6913 54.7601C26.2513 54.7601 28.8113 54.7601 31.3613 54.7601C31.9413 54.7601 32.1113 54.9601 32.0813 55.5201C32.0113 56.6801 32.0013 57.8401 31.9713 59.0101C31.9713 59.6101 31.7213 59.9001 31.0613 59.8801C29.6713 59.8501 28.2313 59.8701 26.8713 59.8701Z" fill="#66C206"/>
<path d="M39.9111 59.87C38.5811 59.87 37.2411 59.87 35.9111 59.87C35.1611 59.87 34.6711 59.34 34.9111 58.66C35.2052 57.7095 35.3138 56.7114 35.2311 55.72C35.2311 54.97 35.5311 54.72 36.2311 54.72C38.7311 54.72 41.2277 54.72 43.7211 54.72C44.3911 54.72 44.7211 54.96 44.7211 55.65C44.7146 56.6138 44.8084 57.5756 45.0011 58.52C45.1911 59.52 44.8911 59.83 43.8611 59.83C42.5011 59.88 41.2311 59.87 39.9111 59.87Z" fill="#66C206"/>
<path d="M53.0213 63.0801C54.4513 63.0801 55.8813 63.0801 57.3113 63.0801C57.9213 63.0801 58.0913 63.3401 57.9713 63.8701C57.7113 64.9901 57.4713 66.1201 57.1513 67.2201C57.1118 67.4674 56.9811 67.6909 56.7848 67.8465C56.5885 68.002 56.341 68.0782 56.0913 68.0601C53.6013 68.0601 51.0913 68.0601 48.6113 68.0601C48.0013 68.0601 47.7813 67.8801 47.8113 67.2601C47.8713 66.1601 47.9213 65.0601 47.8813 63.9701C47.8813 63.2101 48.1813 63.0801 48.8813 63.0901C50.2313 63.1001 51.6213 63.0801 53.0213 63.0801Z" fill="#66C206"/>
<path d="M27.0114 63.0799C28.4014 63.0799 29.8014 63.0799 31.1914 63.0799C31.7914 63.0799 31.9914 63.2899 31.9914 63.8999C31.9914 65.0199 31.9914 66.1499 32.0714 67.2799C32.0714 67.8299 31.9214 68.0599 31.3414 68.0499C28.8214 68.0499 26.3414 68.0499 23.7714 68.0499C23.5611 68.0721 23.35 68.016 23.1785 67.8925C23.0069 67.7689 22.8869 67.5864 22.8414 67.3799C22.4814 66.1399 22.1914 64.8799 21.9114 63.6099C21.7914 63.0299 22.2714 63.0799 22.6214 63.0799H27.0114Z" fill="#66C206"/>
<path d="M40.0312 63.0801C41.3612 63.0801 42.6912 63.0801 44.0312 63.0801C44.7612 63.0801 45.0312 63.2801 45.0312 64.0801C44.8978 65.2001 44.7878 66.3201 44.7012 67.4401C44.7012 67.9801 44.2912 68.0801 43.8712 68.0901C41.2812 68.0901 38.6812 68.0901 36.0912 68.0901C35.5112 68.0901 35.3012 67.7801 35.2912 67.2001C35.3486 66.2175 35.2508 65.2321 35.0012 64.2801C34.7312 63.5101 35.0612 63.0601 36.0012 63.1201C37.3112 63.1401 38.6712 63.0801 40.0312 63.0801Z" fill="#66C206"/>
<path d="M39.9114 51.6701C38.8514 51.6701 37.7814 51.6701 36.7214 51.6701C36.1314 51.6701 35.9314 51.4601 36.0314 50.9101C36.3105 49.3883 36.7774 47.9069 37.4214 46.5001C37.7681 45.6494 38.2218 44.8462 38.7714 44.1101C39.5614 43.1101 40.3214 43.1101 41.1214 44.1101C42.2445 45.6245 43.0351 47.359 43.4414 49.2001C44.1114 51.7001 44.0514 51.7201 41.5114 51.7201L39.9114 51.6701Z" fill="#66C206"/>
<path d="M64.5116 43.37H59.8316C58.4916 43.37 58.0416 42.98 58.0016 41.84C57.9642 41.5928 57.9846 41.3403 58.061 41.1023C58.1375 40.8643 58.268 40.6472 58.4423 40.4681C58.6166 40.2889 58.8301 40.1525 59.0659 40.0696C59.3017 39.9866 59.5535 39.9594 59.8016 39.99C61.1316 39.99 62.4616 39.99 63.8016 39.99C65.5916 39.99 67.3916 39.99 69.1816 39.99C70.5916 39.99 71.1816 40.65 71.0716 41.99C71.0116 42.92 70.5916 43.33 69.6116 43.34C67.9016 43.38 66.2316 43.37 64.5116 43.37Z" fill="#394620"/>
<path d="M15.331 43.3699H10.531C9.36097 43.3699 8.89097 42.9399 8.82097 41.9299C8.73097 40.6799 9.22097 40.0599 10.411 40.0199C13.701 39.9099 17.001 39.9399 20.291 40.0199C21.511 40.0199 21.981 40.7599 21.891 42.0199C21.821 43.0199 21.381 43.3699 20.121 43.3799L15.331 43.3699Z" fill="#394620"/>
<path d="M64.6215 50.05C62.9915 50.05 61.3515 50.05 59.7215 50.05C59.4858 50.0662 59.2494 50.0304 59.0291 49.945C58.8088 49.8596 58.61 49.7268 58.4468 49.5559C58.2836 49.3851 58.16 49.1804 58.0848 48.9565C58.0096 48.7325 57.9845 48.4947 58.0115 48.26C57.9907 48.0337 58.0193 47.8056 58.0953 47.5914C58.1713 47.3772 58.2929 47.182 58.4517 47.0194C58.6105 46.8568 58.8027 46.7307 59.015 46.6496C59.2274 46.5686 59.4548 46.5346 59.6815 46.55H69.3715C69.8356 46.558 70.2776 46.75 70.6002 47.0838C70.9227 47.4176 71.0995 47.8659 71.0915 48.33C71.0835 48.7941 70.8915 49.2361 70.5577 49.5587C70.2239 49.8812 69.7756 50.058 69.3115 50.05C67.7515 50.06 66.2315 50.05 64.6215 50.05Z" fill="#394620"/>
<path d="M15.2818 50.0499C13.7118 50.0499 12.1518 50.0499 10.5918 50.0499C10.1277 50.0499 9.68255 49.8655 9.35436 49.5374C9.02617 49.2092 8.8418 48.764 8.8418 48.2999C8.8418 47.8358 9.02617 47.3907 9.35436 47.0625C9.68255 46.7343 10.1277 46.5499 10.5918 46.5499H20.0818C20.3226 46.5185 20.5674 46.5419 20.7978 46.6185C21.0283 46.6951 21.2384 46.8228 21.4125 46.9921C21.5866 47.1614 21.7202 47.3679 21.8032 47.5961C21.8862 47.8243 21.9165 48.0683 21.8918 48.3099C21.91 48.5509 21.8744 48.793 21.7876 49.0185C21.7007 49.2441 21.5648 49.4475 21.3896 49.6141C21.2144 49.7806 21.0044 49.9061 20.7748 49.9815C20.5451 50.0569 20.3016 50.0803 20.0618 50.0499H15.2818Z" fill="#394620"/>
<path d="M51.1417 51.67C50.0817 51.67 49.0117 51.67 47.9517 51.67C47.4617 51.67 47.1317 51.52 47.0617 50.97C46.7281 49.0434 46.1952 47.1566 45.4717 45.34C45.3217 44.9 44.5717 44.52 45.0117 44.09C45.2717 43.83 45.8917 44.32 46.3417 44.48C49.7234 45.757 52.6526 48.0044 54.7617 50.94C55.2117 51.52 54.9217 51.68 54.3317 51.67C53.2317 51.66 52.2317 51.67 51.1417 51.67Z" fill="#66C206"/>
<path d="M28.7015 51.6701H25.7015C25.4915 51.6701 25.2015 51.7801 25.0715 51.5201C24.9415 51.2601 25.1315 51.0501 25.2915 50.8201C27.4939 47.7724 30.58 45.4753 34.1315 44.2401C34.3515 44.1601 34.6315 44.0501 34.7715 44.2901C34.8106 44.3782 34.8309 44.4736 34.8309 44.5701C34.8309 44.6665 34.8106 44.7619 34.7715 44.8501C33.83 46.8067 33.1862 48.8931 32.8615 51.0401C32.7815 51.5501 32.4915 51.6801 32.0315 51.6801C30.9015 51.6601 29.8015 51.6701 28.7015 51.6701Z" fill="#66C206"/>
<path d="M51.0818 71.27C52.1718 71.27 53.2718 71.27 54.3718 71.27C55.0218 71.27 55.0518 71.53 54.7118 71.98C52.4823 75.0668 49.3312 77.3671 45.7118 78.55C45.5018 78.61 45.2818 78.85 45.0918 78.55C44.9018 78.25 45.0918 78.19 45.1618 78C46.0635 76.0425 46.6895 73.9694 47.0218 71.84C47.1018 71.27 47.4418 71.25 47.8618 71.25L51.0818 71.27Z" fill="#66C206"/>
<path d="M34.8319 78.5C34.8319 78.7 34.7519 78.77 34.4119 78.66C30.7655 77.4661 27.5814 75.1663 25.3019 72.08C25.1519 71.89 24.9919 71.71 25.0619 71.47C25.1319 71.23 25.4519 71.26 25.6619 71.26C27.7919 71.26 29.9219 71.26 32.0419 71.26C32.5719 71.26 32.7719 71.44 32.8619 72C33.205 73.9869 33.7893 75.9246 34.6019 77.77C34.7357 77.9915 34.8146 78.2418 34.8319 78.5Z" fill="#66C206"/>
<path d="M39.8312 13.8701H5.23117C3.95117 13.8701 3.95117 13.8701 3.95117 12.5501V6.5001C3.95117 4.5901 4.47117 4.0701 6.39117 4.0701H73.1512C73.5508 4.04499 73.9516 4.04499 74.3512 4.0701C74.5587 4.07656 74.7629 4.12386 74.9521 4.20929C75.1414 4.29473 75.3119 4.41662 75.454 4.568C75.5961 4.71938 75.707 4.89728 75.7803 5.09153C75.8535 5.28579 75.8878 5.49258 75.8812 5.7001C75.8812 8.2001 75.8812 10.7001 75.8812 13.1901C75.8812 13.7201 75.6812 13.8901 75.1712 13.8801C73.7712 13.8801 72.3812 13.8801 70.9812 13.8801L39.8312 13.8701ZM13.6512 8.8701C13.6236 9.31894 13.774 9.76056 14.0697 10.0993C14.3655 10.4381 14.7827 10.6468 15.2312 10.6801C15.4689 10.695 15.7071 10.6615 15.9315 10.5817C16.1559 10.5018 16.3617 10.3772 16.5366 10.2155C16.7114 10.0537 16.8516 9.85819 16.9486 9.64069C17.0457 9.42318 17.0976 9.18824 17.1012 8.9501C17.0683 8.50819 16.8844 8.09105 16.5803 7.76873C16.2762 7.44642 15.8704 7.23857 15.4312 7.1801C14.9747 7.16924 14.5322 7.33824 14.1993 7.65065C13.8663 7.96307 13.6694 8.39386 13.6512 8.8501V8.8701ZM20.2312 8.9401C20.2111 9.16682 20.2396 9.39523 20.3148 9.61007C20.39 9.8249 20.5101 10.0212 20.6672 10.1859C20.8244 10.3506 21.0148 10.4799 21.2259 10.5651C21.4369 10.6503 21.6638 10.6895 21.8912 10.6801C22.3474 10.6572 22.7797 10.469 23.1073 10.1506C23.4348 9.83224 23.6353 9.40549 23.6712 8.9501C23.622 8.49922 23.421 8.07845 23.1012 7.75683C22.7814 7.43522 22.3618 7.23185 21.9112 7.1801C21.682 7.17388 21.454 7.2158 21.242 7.30313C21.0301 7.39046 20.8387 7.52127 20.6804 7.68711C20.5221 7.85296 20.4003 8.05016 20.323 8.26598C20.2456 8.4818 20.2143 8.71144 20.2312 8.9401ZM10.4012 8.9401C10.419 8.71656 10.3907 8.49174 10.3182 8.27954C10.2457 8.06734 10.1304 7.87227 9.97954 7.70638C9.82865 7.5405 9.64534 7.40732 9.44094 7.31507C9.23654 7.22283 9.01539 7.17349 8.79117 7.1701C8.33187 7.21366 7.90176 7.41467 7.57371 7.73907C7.24567 8.06347 7.03986 8.49131 6.99117 8.9501C7.05133 9.40296 7.26472 9.82157 7.59584 10.1363C7.92695 10.4511 8.35584 10.643 8.81117 10.6801C9.03748 10.687 9.26265 10.6454 9.4716 10.5582C9.68056 10.471 9.86848 10.3402 10.0228 10.1745C10.1771 10.0088 10.2943 9.81212 10.3664 9.59751C10.4386 9.3829 10.4641 9.15535 10.4412 8.9301L10.4012 8.9401Z" fill="#FAFCFC"/>
<path d="M13.651 8.84988C13.66 8.62044 13.7143 8.39505 13.8108 8.1867C13.9073 7.97835 14.0441 7.79116 14.2133 7.63592C14.3825 7.48068 14.5807 7.36046 14.7966 7.28219C15.0125 7.20392 15.2417 7.16915 15.471 7.17988C15.9103 7.23836 16.316 7.44621 16.6201 7.76852C16.9242 8.09083 17.1082 8.50797 17.141 8.94988C17.1378 9.19166 17.0848 9.43017 16.9853 9.65055C16.8858 9.87092 16.7419 10.0684 16.5627 10.2308C16.3835 10.3931 16.1728 10.5167 15.9436 10.594C15.7145 10.6713 15.4719 10.7005 15.231 10.6799C14.7789 10.6466 14.3584 10.4352 14.0622 10.092C13.7659 9.74883 13.618 9.30205 13.651 8.84988Z" fill="#66C206"/>
<path d="M20.2318 8.94005C20.215 8.71139 20.2463 8.48175 20.3236 8.26593C20.401 8.05011 20.5228 7.85291 20.6811 7.68706C20.8394 7.52122 21.0307 7.39041 21.2427 7.30308C21.4547 7.21574 21.6827 7.17383 21.9118 7.18005C22.3624 7.2318 22.7821 7.43516 23.1019 7.75678C23.4217 8.0784 23.6226 8.49917 23.6718 8.95005C23.636 9.40544 23.4355 9.83219 23.1079 10.1506C22.7804 10.4689 22.3481 10.6572 21.8918 10.68C21.6644 10.6895 21.4376 10.6503 21.2265 10.565C21.0155 10.4798 20.825 10.3506 20.6679 10.1859C20.5108 10.0212 20.3906 9.82485 20.3154 9.61002C20.2402 9.39518 20.2117 9.16677 20.2318 8.94005Z" fill="#66C206"/>
<path d="M10.4412 8.92999C10.4641 9.15524 10.4386 9.38279 10.3665 9.5974C10.2943 9.81201 10.1772 10.0087 10.0228 10.1744C9.86852 10.3401 9.6806 10.4709 9.47164 10.5581C9.26269 10.6453 9.03752 10.6868 8.81121 10.68C8.35588 10.6428 7.92699 10.4509 7.59587 10.1362C7.26476 9.82146 7.05137 9.40285 6.99121 8.94998C7.0399 8.4912 7.2457 8.06336 7.57375 7.73896C7.9018 7.41456 8.33191 7.21354 8.79121 7.16999C9.0179 7.16799 9.24254 7.21302 9.45095 7.30223C9.65935 7.39143 9.84701 7.52287 10.0021 7.68826C10.1571 7.85364 10.2762 8.04937 10.3518 8.2631C10.4274 8.47682 10.4578 8.7039 10.4412 8.92999Z" fill="#66C206"/>
</g>
<defs>
<clipPath id="clip0_87_484">
<rect width="79" height="79" fill="white" transform="translate(0.231445 0.5)"/>
</clipPath>
</defs>
</svg>
