<svg width="24" height="18" viewBox="0 0 24 18" fill="none" xmlns="http://www.w3.org/2000/svg">
<path d="M10.2496 13.875L16.0246 8.1L14.4246 6.5L10.2746 10.65L8.14961 8.525L6.54961 10.15L10.2496 13.875ZM6.64961 17.625C4.94961 17.625 3.49561 17.0417 2.28761 15.875C1.07894 14.7083 0.474609 13.2833 0.474609 11.6C0.474609 10.1667 0.874609 8.875 1.67461 7.725C2.47461 6.575 3.54961 5.85833 4.89961 5.575C5.39961 4.00833 6.29961 2.75 7.59961 1.8C8.89961 0.85 10.3663 0.375 11.9996 0.375C13.9829 0.375 15.6873 1.04567 17.1126 2.387C18.5373 3.729 19.3413 5.375 19.5246 7.325V7.4C20.6913 7.66667 21.6496 8.279 22.3996 9.237C23.1496 10.1957 23.5246 11.2833 23.5246 12.5C23.5246 13.9167 23.0289 15.125 22.0376 16.125C21.0456 17.125 19.8329 17.625 18.3996 17.625H6.64961Z" fill="#F67A3C"/>
</svg>
