<svg width="80" height="80" viewBox="0 0 80 80" fill="none" xmlns="http://www.w3.org/2000/svg">
<g clip-path="url(#clip0_87_513)">
<path d="M79.7316 48.6999C79.0316 49.2099 79.2316 50.0799 79.0116 50.7599C78.6916 51.7599 78.3516 52.6799 78.0116 53.6399C77.8333 54.041 77.5069 54.3576 77.1006 54.5235C76.6943 54.6893 76.2396 54.6917 75.8316 54.5299C72.7316 53.4999 69.6416 52.3899 66.6216 51.0999C66.3966 51.0359 66.1885 50.9233 66.0118 50.7701C65.8351 50.6169 65.6941 50.4269 65.5987 50.2133C65.5034 49.9998 65.456 49.7679 65.46 49.5341C65.4639 49.3003 65.5191 49.0701 65.6216 48.8599C67.9468 42.5365 67.6845 35.5512 64.8916 29.4199C63.2014 25.586 60.6074 22.2187 57.3315 19.6063C54.0556 16.994 50.1955 15.2144 46.0816 14.4199C43.1663 13.8745 40.1838 13.7867 37.2416 14.1599C33.8881 14.5944 30.6644 15.7326 27.7816 17.4999C23.7415 19.8862 20.4185 23.3162 18.1616 27.4299C16.9279 29.6172 16.028 31.9766 15.4916 34.4299C14.3768 39.0087 14.6306 43.814 16.2216 48.2499C16.8816 49.8499 16.3316 50.8999 14.7316 51.4599C12.0316 52.3999 9.34156 53.3799 6.66156 54.3699C5.06156 54.9599 4.26156 54.4599 3.72156 52.8299C3.12071 51.0857 2.62975 49.3055 2.25156 47.4999C1.78475 44.5947 1.61055 41.6499 1.73156 38.7099C1.74205 36.0523 2.07788 33.4059 2.73156 30.8299C4.45496 23.6973 8.09633 17.1719 13.2616 11.9599C17.0377 8.20047 21.5623 5.2772 26.5416 3.37992C29.7703 2.18584 33.1257 1.36713 36.5416 0.939919C39.1624 0.570534 41.818 0.516817 44.4516 0.779919C52.2065 1.42189 59.5942 4.36026 65.6716 9.21992C70.4315 13.0645 74.246 17.9498 76.8216 23.4999C77.9938 25.8767 78.8446 28.3988 79.3516 30.9999C79.3516 31.2199 79.4316 31.3999 79.7116 31.3099L79.7316 48.6999ZM42.7316 7.28992C42.7316 8.18992 42.7316 9.08992 42.7316 9.98992C42.7316 10.3499 42.8016 10.5199 43.2116 10.5499C44.6748 10.6971 46.1275 10.9342 47.5616 11.2599C49.538 11.6622 51.461 12.2931 53.2916 13.1399C58.1228 15.3259 62.2702 18.7821 65.2916 23.1399C65.3434 23.2507 65.4208 23.3475 65.5175 23.4224C65.6142 23.4973 65.7273 23.5481 65.8475 23.5706C65.9678 23.5931 66.0916 23.5866 66.2088 23.5517C66.326 23.5168 66.4332 23.4545 66.5216 23.3699C67.8616 22.4899 69.2616 21.7399 70.6516 20.9499C71.1016 20.6999 71.2316 20.4299 70.8416 19.8599C66.8602 14.0144 61.2621 9.45527 54.7316 6.73992C51.1227 5.21361 47.2748 4.3303 43.3616 4.12992C42.8516 4.12992 42.7116 4.21992 42.7316 4.68992C42.7316 5.55992 42.7316 6.42992 42.7316 7.28992ZM39.3716 7.39992V5.49992C39.3716 4.05992 39.3716 4.02992 37.9116 4.16992C33.5209 4.55619 29.2391 5.74951 25.2816 7.68992C19.6537 10.4685 14.8333 14.6451 11.2816 19.8199C10.8716 20.3999 10.9516 20.7199 11.5216 21.0399L15.6116 23.3899C15.9916 23.5999 16.4316 23.7499 16.7416 23.2899C17.9982 21.4106 19.4866 19.6972 21.1716 18.1899C23.7956 15.7727 26.8479 13.8667 30.1716 12.5699C32.9375 11.482 35.8489 10.8081 38.8116 10.5699C39.3516 10.5699 39.4816 10.2999 39.4716 9.81992C39.3516 8.99992 39.3716 8.19992 39.3716 7.39992ZM4.94156 39.8199C5.04156 41.1999 5.10156 42.3399 5.21156 43.4899C5.43221 45.7446 5.8607 47.9741 6.49156 50.1499C6.66156 50.7299 6.86156 50.7499 7.30156 50.5499C8.59584 49.9596 9.933 49.4681 11.3016 49.0799C12.5216 48.7299 12.6516 48.5699 12.3016 47.2999C11.5723 44.2979 11.2992 41.2032 11.4916 38.1199C11.7195 34.4353 12.6566 30.8293 14.2516 27.4999C14.3201 27.4068 14.3671 27.2997 14.3891 27.1862C14.4111 27.0727 14.4077 26.9558 14.379 26.8438C14.3502 26.7318 14.297 26.6276 14.2231 26.5388C14.1492 26.4499 14.0564 26.3786 13.9516 26.3299C12.5616 25.5099 11.1316 24.7399 9.77156 23.8699C9.03156 23.4099 8.77156 23.8099 8.56156 24.3599C7.5241 26.7137 6.68128 29.1485 6.04156 31.6399C5.44456 34.3306 5.07658 37.0671 4.94156 39.8199ZM76.9916 39.9999C76.8916 38.2799 76.9016 36.5699 76.6316 34.8399C76.1019 31.2762 75.0436 27.8114 73.4916 24.5599C73.0616 23.6499 72.6316 23.7699 71.9616 24.1699C70.7116 24.9099 69.4316 25.5999 68.1816 26.3299C67.7516 26.5799 67.2416 26.7699 67.8016 27.4799C68.0308 27.8617 68.209 28.2718 68.3316 28.6999C69.3594 31.3097 70.0581 34.0374 70.4116 36.8199C70.8483 40.4361 70.5662 44.103 69.5816 47.6099C69.4616 48.0799 69.2916 48.5299 70.1216 48.7899C71.6064 49.2371 73.0624 49.7748 74.4816 50.3999C75.4816 50.8299 75.5716 50.3999 75.7316 49.7199C76.6046 46.5549 77.0288 43.2829 76.9916 39.9999Z" fill="#484848"/>
<path d="M31.3318 79.5001C30.5253 79.3418 29.7005 79.298 28.8818 79.3701C26.7276 79.2892 24.6414 78.5938 22.8695 77.3658C21.0976 76.1379 19.714 74.4288 18.8818 72.4401C18.0554 70.6616 17.7636 68.6814 18.0418 66.7401C18.6818 62.4901 21.1318 58.3101 26.3018 56.8801C28.2311 56.2609 30.2945 56.1901 32.2617 56.6757C34.2289 57.1613 36.0223 58.1842 37.4418 59.6301C38.4418 60.5501 39.3618 61.4601 40.2518 62.4401C40.8118 63.0601 41.2518 63.0501 41.8018 62.4401C43.1675 60.948 44.656 59.5731 46.2518 58.3301C48.454 56.8039 51.1452 56.1516 53.8018 56.5001C55.8097 56.6304 57.7398 57.3258 59.3694 58.506C60.999 59.6861 62.2617 61.3031 63.0118 63.1701C64.2629 65.8618 64.4188 68.9344 63.4467 71.7389C62.4745 74.5434 60.4504 76.8602 57.8018 78.2001C55.7014 79.2315 53.3399 79.6094 51.0225 79.285C48.7051 78.9606 46.5382 77.9487 44.8018 76.3801C43.7218 75.3801 42.6518 74.3801 41.6518 73.2701C41.1418 72.7301 40.8618 72.7601 40.3418 73.2701C38.9671 74.8219 37.4468 76.2384 35.8018 77.5001C34.7677 78.2242 33.608 78.7498 32.3818 79.0501C32.2471 79.0728 32.119 79.1248 32.0066 79.2026C31.8943 79.2804 31.8004 79.382 31.7318 79.5001H31.3318ZM29.4118 72.7401C29.9633 72.7945 30.5201 72.7337 31.0468 72.5615C31.5736 72.3894 32.0588 72.1097 32.4718 71.7401C33.6018 70.7401 34.6418 69.5301 35.7518 68.4401C36.1118 68.0801 36.1618 67.8301 35.7518 67.4401C34.7004 66.2954 33.5924 65.204 32.4318 64.1701C31.7909 63.6297 31.0172 63.2706 30.1908 63.1299C29.3644 62.9893 28.5154 63.0722 27.7318 63.3701C26.6953 63.8049 25.8356 64.5762 25.2913 65.5595C24.747 66.5429 24.5499 67.681 24.7318 68.7901C25.0718 70.8601 27.2718 72.9301 29.4118 72.7201V72.7401ZM57.3518 68.0401C57.3896 67.2014 57.2035 66.3677 56.8125 65.6247C56.4216 64.8817 55.8399 64.2562 55.1273 63.8123C54.4147 63.3684 53.5967 63.1222 52.7575 63.099C51.9182 63.0758 51.0879 63.2763 50.3518 63.6801C48.6018 64.6801 47.4718 66.3801 46.0218 67.6801C45.7318 67.9501 46.0818 68.2001 46.2918 68.4101C47.2918 69.4101 48.2918 70.5001 49.4018 71.4901C50.0849 72.0978 50.9283 72.4964 51.8315 72.6384C52.7347 72.7804 53.6596 72.6598 54.4962 72.291C55.3329 71.9222 56.0459 71.3207 56.5503 70.5582C57.0548 69.7957 57.3296 68.9043 57.3418 67.9901L57.3518 68.0401Z" fill="#66C206"/>
<path d="M7.34158 79.5C6.34158 78.58 6.52157 77.38 6.52157 76.21C6.52157 73.0834 6.52157 69.9534 6.52157 66.82C6.52157 66.47 6.52157 66.12 6.52157 65.69C6.01157 65.92 5.76158 66.34 5.28158 66.41C4.92445 66.4799 4.5542 66.4283 4.22981 66.2634C3.90542 66.0985 3.64554 65.8298 3.49157 65.5C3.30679 65.1865 3.23018 64.8209 3.27355 64.4595C3.31691 64.0981 3.47784 63.761 3.73157 63.5C4.85157 62.38 5.94158 61.22 7.09158 60.13C7.36451 59.8361 7.74017 59.6586 8.14054 59.6344C8.5409 59.6102 8.93521 59.7412 9.24158 60C10.5702 61.092 11.7924 62.3074 12.8916 63.63C13.1547 63.9386 13.2854 64.3385 13.2555 64.7429C13.2255 65.1473 13.0373 65.5236 12.7316 65.79C12.5351 66.0857 12.2329 66.2949 11.8871 66.3749C11.5412 66.4548 11.1779 66.3994 10.8716 66.22C10.0016 65.69 9.87158 66.07 9.87158 66.86C9.87158 70.16 9.87158 73.46 9.87158 76.76C9.87158 77.76 9.87158 78.76 8.87158 79.48L7.34158 79.5Z" fill="#484848"/>
<path d="M74.7314 79.1399L74.8914 79.4799H72.7314C72.7814 79.3699 72.8414 79.2499 72.9014 79.1399C73.1899 79.2663 73.5015 79.3316 73.8164 79.3316C74.1314 79.3316 74.443 79.2663 74.7314 79.1399Z" fill="#66C206"/>
<path d="M57.6711 30.1399C55.9611 31.9799 54.2811 33.8299 52.5511 35.6399C51.5511 36.6999 50.4411 37.6399 49.3911 38.6999C47.6911 40.3599 45.9811 42.0299 44.2911 43.6999C43.5131 44.4521 42.5029 44.9181 41.4257 45.0217C40.3485 45.1252 39.2681 44.8602 38.3611 44.2699C37.4149 43.6832 36.6947 42.7941 36.3171 41.7468C35.9396 40.6995 35.9269 39.5553 36.2811 38.4999C36.5527 37.6568 37.0575 36.9079 37.7371 36.3399C38.4167 35.7718 39.2432 35.4077 40.1211 35.2899C41.7311 34.9599 43.2711 34.2899 44.8811 33.8699C46.4911 33.4499 47.7711 33.0299 49.2211 32.6099C51.8111 31.8499 54.4111 31.1599 57.0111 30.4399C57.2464 30.3776 57.4695 30.2762 57.6711 30.1399Z" fill="#66C206"/>
<path d="M74.7315 79.14C74.4388 79.2707 74.122 79.3383 73.8015 79.3383C73.481 79.3383 73.1641 79.2707 72.8715 79.14L72.6115 78.94C72.6115 78.81 72.6115 78.74 72.4515 78.75L72.2115 78.55C72.2115 78.41 72.2115 78.34 72.0515 78.35L71.8115 78.15C71.8115 78.01 71.8115 77.94 71.6515 77.95C70.8915 77.21 70.1115 76.49 69.3615 75.73C69.1917 75.6039 69.0506 75.4434 68.9473 75.259C68.8439 75.0745 68.7807 74.8703 68.7619 74.6598C68.743 74.4492 68.7688 74.237 68.8377 74.0372C68.9066 73.8373 69.0169 73.6542 69.1615 73.5C69.264 73.3212 69.4021 73.1653 69.5671 73.0419C69.7322 72.9185 69.9208 72.8302 70.1212 72.7824C70.3217 72.7346 70.5298 72.7284 70.7328 72.7641C70.9358 72.7998 71.1293 72.8767 71.3015 72.99C72.1115 73.4 72.1815 72.99 72.1815 72.34C72.1815 68.68 72.1815 65.02 72.1815 61.34C72.1379 61.0038 72.2143 60.6631 72.3972 60.3778C72.5801 60.0924 72.8578 59.8807 73.1815 59.78C73.5066 59.6471 73.8636 59.6123 74.2083 59.6798C74.553 59.7473 74.8705 59.9142 75.1215 60.16C75.28 60.371 75.3952 60.6113 75.4604 60.867C75.5256 61.1227 75.5396 61.3888 75.5015 61.65V72.22C75.5015 72.79 75.3915 73.51 76.3615 72.94C76.6998 72.727 77.1087 72.6569 77.4986 72.745C77.8885 72.8332 78.2276 73.0723 78.4415 73.41C78.6068 73.5505 78.738 73.7267 78.8252 73.9254C78.9123 74.1242 78.9531 74.3401 78.9444 74.5569C78.9357 74.7737 78.8778 74.9857 78.7751 75.1768C78.6724 75.3679 78.5275 75.5331 78.3515 75.66C77.1515 76.85 75.9415 77.98 74.7315 79.14Z" fill="#484848"/>
<path d="M71.6714 77.95C71.8114 77.95 71.8714 78.01 71.8314 78.15C71.6314 78.19 71.6114 78.1 71.6714 77.95Z" fill="#66C206"/>
<path d="M72.0713 78.3501C72.2213 78.3501 72.2613 78.4101 72.2313 78.5501C72.0413 78.5901 72.0013 78.5001 72.0713 78.3501Z" fill="#66C206"/>
<path d="M72.4717 78.75C72.6217 78.75 72.6617 78.81 72.6317 78.94C72.4417 78.99 72.4017 78.92 72.4717 78.75Z" fill="#66C206"/>
<path d="M42.7313 7.2899C42.7313 6.4299 42.7313 5.5599 42.7313 4.6899C42.7313 4.2199 42.8513 4.1099 43.3613 4.1299C47.2745 4.33028 51.1224 5.21359 54.7313 6.7399C61.2645 9.46067 66.8628 14.0269 70.8413 19.8799C71.2313 20.4499 71.1013 20.7199 70.6513 20.9699C69.2613 21.7599 67.8613 22.5099 66.5213 23.3899C66.4329 23.4745 66.3257 23.5368 66.2085 23.5717C66.0913 23.6066 65.9674 23.6131 65.8472 23.5906C65.727 23.5681 65.6139 23.5173 65.5172 23.4424C65.4205 23.3675 65.3431 23.2707 65.2913 23.1599C62.2699 18.8021 58.1225 15.3459 53.2913 13.1599C51.4607 12.3131 49.5377 11.6822 47.5613 11.2799C46.1272 10.9542 44.6745 10.7171 43.2113 10.5699C42.8013 10.5699 42.7213 10.3699 42.7313 10.0099C42.7313 9.0899 42.7313 8.1899 42.7313 7.2899Z" fill="#FCFDFD"/>
<path d="M39.371 7.40005C39.371 8.20005 39.371 9.00005 39.371 9.80005C39.371 10.28 39.251 10.51 38.711 10.55C35.7483 10.7882 32.8369 11.4621 30.071 12.55C26.7651 13.8524 23.7301 15.7581 21.121 18.17C19.4488 19.6859 17.9739 21.4061 16.731 23.29C16.421 23.75 15.981 23.6 15.601 23.39L11.511 21.04C10.941 20.72 10.861 20.4 11.271 19.82C14.8254 14.6439 19.6495 10.4672 25.281 7.69005C29.2392 5.7531 33.5209 4.56318 37.911 4.18005C39.361 4.04005 39.361 4.07005 39.371 5.51005V7.40005Z" fill="#FCFDFD"/>
<path d="M4.94141 39.82C5.07866 37.0806 5.44663 34.3576 6.04141 31.68C6.68112 29.1886 7.52394 26.7538 8.56141 24.4C8.79141 23.85 9.03141 23.45 9.77141 23.91C11.1314 24.78 12.5614 25.55 13.9514 26.37C14.0563 26.4187 14.149 26.49 14.2229 26.5789C14.2968 26.6677 14.3501 26.7719 14.3788 26.8839C14.4075 26.9959 14.411 27.1128 14.3889 27.2263C14.3669 27.3398 14.3199 27.4469 14.2514 27.54C12.6753 30.8599 11.7519 34.4517 11.5314 38.12C11.339 41.2033 11.6121 44.298 12.3414 47.3C12.6514 48.57 12.5214 48.73 11.3414 49.08C9.97284 49.4683 8.63568 49.9597 7.34141 50.55C6.90141 50.75 6.70141 50.73 6.53141 50.15C5.88761 47.9787 5.44573 45.7526 5.21141 43.5C5.10141 42.34 5.04141 41.2 4.94141 39.82Z" fill="#FCFDFD"/>
<path d="M76.9912 40C77.0284 43.283 76.6042 46.555 75.7312 49.72C75.5712 50.35 75.4512 50.83 74.4812 50.4C73.0621 49.7749 71.606 49.2372 70.1212 48.79C69.2912 48.53 69.4612 48.08 69.5812 47.61C70.5659 44.1031 70.8479 40.4362 70.4112 36.82C70.0578 34.0375 69.359 31.3098 68.3312 28.7C68.207 28.2788 68.0289 27.8755 67.8012 27.5C67.2412 26.79 67.8012 26.6 68.1812 26.35C69.4312 25.62 70.7112 24.93 71.9612 24.19C72.6312 23.79 73.0612 23.67 73.4912 24.58C75.0413 27.8252 76.0996 31.2831 76.6312 34.84C76.9012 36.57 76.8912 38.28 76.9912 40Z" fill="#FCFDFD"/>
<path d="M29.411 72.7201C27.271 72.9301 25.071 70.8601 24.731 68.7901C24.5491 67.681 24.7462 66.5429 25.2905 65.5595C25.8348 64.5762 26.6945 63.8049 27.731 63.3701C28.5213 63.0546 29.3824 62.9596 30.2225 63.0952C31.0626 63.2308 31.8501 63.592 32.501 64.1401C33.6615 65.174 34.7696 66.2654 35.821 67.4101C36.201 67.7801 36.151 68.0301 35.821 68.4101C34.711 69.5001 33.671 70.6601 32.541 71.7101C32.1206 72.0907 31.6242 72.3776 31.0846 72.5517C30.5449 72.7258 29.9745 72.7832 29.411 72.7201Z" fill="#FCFDFD"/>
<path d="M57.3512 68.0199C57.3352 68.9324 57.0577 69.8212 56.5518 70.5807C56.0458 71.3403 55.3326 71.9388 54.4967 72.3051C53.6608 72.6715 52.7374 72.7903 51.836 72.6476C50.9346 72.5049 50.093 72.1066 49.4112 71.4999C48.3412 70.4999 47.3412 69.4999 46.3012 68.4199C46.0912 68.2099 45.7412 67.9599 46.0312 67.6899C47.4812 66.3399 48.6112 64.6199 50.3612 63.6899C51.0947 63.2902 51.921 63.0919 52.7561 63.1151C53.5912 63.1384 54.4052 63.3823 55.1153 63.8223C55.8255 64.2622 56.4065 64.8823 56.7992 65.6196C57.1919 66.357 57.3824 67.1851 57.3512 68.0199Z" fill="#FCFDFD"/>
</g>
<defs>
<clipPath id="clip0_87_513">
<rect width="79" height="79" fill="white" transform="translate(0.731445 0.5)"/>
</clipPath>
</defs>
</svg>
