<svg width="76" height="60" viewBox="0 0 76 60" fill="none" xmlns="http://www.w3.org/2000/svg">
<path d="M11.25 15.5H3.75V9.875C3.75 6.82812 6.21094 4.25 9.375 4.25H11.25V15.5ZM11.25 56.75H9.375C6.21094 56.75 3.75 54.2891 3.75 51.125V45.5H11.25V56.75ZM15 56.75V45.1484C16.875 44.5625 18.5156 43.3906 19.6875 41.75H47.4609L28.7109 53.1172C24.6094 55.4609 19.9219 56.75 15.1172 56.75H15ZM15 15.9688V4.25H15.1172C19.9219 4.25 24.6094 5.65625 28.7109 8L47.4609 19.25H19.6875C18.5156 17.7266 16.875 16.5547 14.8828 15.9688H15Z" fill="#DAEDC7"/>
<path d="M0 20.1875C0 17.6094 1.99219 15.5 4.6875 15.5H12.1875C15.2344 15.5 17.9297 17.0234 19.6875 19.25H53.4375C61.5234 19.25 69.2578 21.9453 74.4141 28.8594C75.1172 29.9141 75.1172 31.2031 74.4141 32.2578C69.2578 39.1719 61.5234 41.75 53.4375 41.75H19.6875C17.9297 44.0938 15.2344 45.5 12.1875 45.5H4.6875C1.99219 45.5 0 43.5078 0 40.8125V20.1875ZM60 32.0234V29.0938C60 26.75 58.125 24.875 55.7812 24.875C55.4297 24.875 55.3125 25.1094 55.3125 25.4609V35.6562C55.3125 35.8906 55.4297 36.125 55.7812 36.125C58.125 36.125 60 34.3672 60 32.0234Z" fill="#66C206"/>
</svg>
