<svg width="50" height="48" viewBox="0 0 50 48" fill="transparent" xmlns="http://www.w3.org/2000/svg">
<path d="M40.4614 38.8619L40.7783 37.436C41.016 36.327 40.3822 35.1387 39.3524 34.6634L30.7176 30.9401C29.6878 30.544 28.4995 30.7817 27.8658 31.6531L26.5191 33.3167L40.4614 38.8619ZM0.297852 11.1356C0.218633 31.0986 16.5376 47.3383 36.5005 47.3383C37.6888 47.3383 38.6394 46.6253 38.8771 45.437L39.6693 42.2683L24.3802 35.9309C18.8349 33.2374 14.3987 28.8012 11.7053 23.256L5.36781 7.96686L2.19909 8.75904C1.01081 8.99669 0.218633 9.94731 0.297852 11.1356ZM15.983 19.7704C16.8544 19.1366 17.0921 17.9483 16.696 16.9185L12.9728 8.28373C12.4974 7.2539 11.3092 6.62015 10.1209 6.8578L8.77419 7.17468L14.3195 21.1171L15.983 19.7704Z" fill="#66C206"/>
<path d="M39.6693 42.2681L40.4614 38.8617L26.5191 33.3164L24.3802 35.9306L39.6693 42.2681ZM11.7053 23.2557L14.3195 21.1168L8.77419 7.17443L5.36781 7.96661L11.7053 23.2557Z" fill="#CAD6CA"/>
<path d="M34.4892 7.06589C34.4892 6.40536 34.9973 5.84645 35.7086 5.84645C36.3692 5.84645 36.9281 6.40536 36.9281 7.06589V13.3664L41.247 16.2118C41.8059 16.6182 41.9583 17.3804 41.5518 17.9393C41.1961 18.4982 40.434 18.6507 39.8751 18.2442L34.9973 14.9923C34.6924 14.7891 34.4892 14.3826 34.4892 13.9761V7.06589ZM35.7086 0.968652C42.8729 0.968652 48.7161 6.81184 48.7161 13.9761C48.7161 21.1912 42.8729 26.9836 35.7086 26.9836C28.4936 26.9836 22.7012 21.1912 22.7012 13.9761C22.7012 6.81184 28.4936 0.968652 35.7086 0.968652ZM25.1401 13.9761C25.1401 19.8193 29.8654 24.5447 35.7086 24.5447C41.501 24.5447 46.2772 19.8193 46.2772 13.9761C46.2772 8.18372 41.501 3.40755 35.7086 3.40755C29.8654 3.40755 25.1401 8.18372 25.1401 13.9761Z" fill="#CAD6CA"/>
</svg>
