<svg width="62" height="62" viewBox="0 0 62 62" fill="none" xmlns="http://www.w3.org/2000/svg">
<path d="M24.2031 16.7344C20.9219 22.125 17.0547 30.2109 14.8281 35.25H3.69531C2.75781 35.25 1.82031 34.7812 1.35156 33.8438C0.765625 33.0234 0.765625 31.8516 1.35156 31.0312L7.5625 20.8359C9.08594 18.375 11.7812 16.7344 14.7109 16.7344H24.2031ZM27.1328 47.4375C32.2891 45.2109 40.375 41.5781 45.6484 38.2969V47.7891C45.6484 50.7188 44.125 53.4141 41.6641 54.9375L31.4688 61.1484C30.6484 61.6172 29.4766 61.7344 28.6562 61.1484C27.7188 60.6797 27.1328 59.7422 27.1328 58.6875V47.4375Z" fill="#DAEDC7"/>
<path d="M20.4531 47.7891L14.4766 41.9297C13.4219 40.7578 13.0703 39.2344 13.7734 37.8281C15.8828 32.9062 21.0391 21.3047 25.2578 15.2109C34.8672 1.03125 49.1641 0.5625 57.6016 2.20312C59.0078 2.4375 60.0625 3.49219 60.2969 4.89844C61.9375 13.3359 61.4688 27.6328 47.2891 37.2422C41.0781 41.4609 29.4766 46.5 24.4375 48.6094C23.1484 49.1953 21.5078 48.8438 20.4531 47.7891ZM46 21.1875C48.5781 21.1875 50.6875 19.1953 50.6875 16.5C50.6875 13.9219 48.5781 11.8125 46 11.8125C43.3047 11.8125 41.3125 13.9219 41.3125 16.5C41.3125 19.1953 43.3047 21.1875 46 21.1875Z" fill="#66C206"/>
</svg>
