<svg width="44" height="50" viewBox="0 0 44 50" fill="none" xmlns="http://www.w3.org/2000/svg">
<path d="M18.4003 37.5621C18.0843 33.139 14.5301 29.6638 10.1071 29.4269C11.7657 25.6357 14.6881 19.396 17.1365 15.8418C23.6131 6.28492 33.249 5.96899 38.9358 7.07475C39.8836 7.23271 40.5944 7.94356 40.7524 8.89135C41.8581 14.5781 41.5422 24.214 31.9853 30.6906C28.4311 33.0601 22.2704 35.9034 18.4003 37.5621ZM31.1165 13.5513C29.2999 13.5513 27.9572 14.973 27.9572 16.7106C27.9572 18.5272 29.2999 19.8699 31.1165 19.8699C32.8541 19.8699 34.2758 18.5272 34.2758 16.7106C34.2758 14.973 32.8541 13.5513 31.1165 13.5513Z" fill="#66C206"/>
<path d="M2.60371 29.3479C1.97185 29.3479 1.33999 29.0319 1.02406 28.4001C0.629144 27.8472 0.629144 27.0574 1.02406 26.5045L5.21014 19.633C6.23692 17.9744 8.05352 16.8686 10.0281 16.8686H16.4257C14.2142 20.5018 11.6077 25.9516 10.1071 29.3479H2.60371ZM30.8795 37.799C30.8795 39.7736 29.8527 41.5902 28.1941 42.617L21.3226 46.8031C20.7697 47.119 19.9799 47.198 19.427 46.8031C18.7952 46.4871 18.4003 45.8553 18.4003 45.1444V37.5621C21.8755 36.0614 27.3253 33.6129 30.8795 31.4014V37.799ZM13.8982 43.7227C10.0281 47.6719 0.787109 47.04 0.787109 47.04C0.787109 47.04 0.155248 37.799 4.0254 33.9289C6.7898 31.2435 11.2128 31.2435 13.8982 33.9289C16.5837 36.6143 16.5837 41.0373 13.8982 43.7227ZM10.1861 37.6411C9.31724 36.6933 7.81657 36.6933 6.94776 37.6411C5.60506 38.9048 5.842 41.9851 5.842 41.9851C5.842 41.9851 8.92233 42.2221 10.1861 40.8793C11.1338 40.0105 11.1338 38.5099 10.1861 37.6411Z" fill="#E8F3E8"/>
</svg>
