<svg width="80" height="80" viewBox="0 0 80 80" fill="none" xmlns="http://www.w3.org/2000/svg">
<g clip-path="url(#clip0_87_548)">
<path d="M79.8249 20.3099C79.2176 20.6516 78.5162 20.7884 77.8249 20.6999H59.3249C59.0252 20.7379 58.7207 20.7075 58.4344 20.611C58.1481 20.5145 57.8874 20.3544 57.6718 20.1427C57.4563 19.931 57.2915 19.6732 57.1898 19.3887C57.0882 19.1041 57.0523 18.8003 57.0849 18.4999V3.15989C57.0849 1.58989 57.7449 0.959894 59.3149 0.949894H60.7149C64.8849 0.989894 63.5949 0.499894 66.6249 3.49989C66.8238 3.71505 67.0675 3.8839 67.3388 3.99449C67.6101 4.10508 67.9023 4.15472 68.1949 4.13989C71.4249 4.13989 74.6549 4.13989 77.8849 4.13989C78.5534 4.05046 79.233 4.17657 79.8249 4.49989V20.3099ZM68.6249 17.1799C71.0849 17.1799 73.5549 17.1799 76.0149 17.1799C76.6549 17.1799 76.8849 16.9699 76.8749 16.3199C76.8749 14.2299 76.8749 12.1299 76.8749 10.0399C76.8749 9.41989 76.6349 9.23989 76.0549 9.23989C71.1649 9.23989 66.2749 9.23989 61.3849 9.23989C60.7649 9.23989 60.5949 9.45989 60.6049 10.0599C60.6049 12.1499 60.6049 14.2499 60.6049 16.3399C60.6049 16.9799 60.7849 17.2099 61.4449 17.1999C63.8249 17.1599 66.2049 17.1799 68.5949 17.1799H68.6249Z" fill="#66C206"/>
<path d="M79.8248 49.8999C78.9681 50.2397 78.0399 50.36 77.1248 50.2499C71.2348 50.2499 65.3448 50.2499 59.4548 50.2499C59.1539 50.2741 58.8512 50.2343 58.5667 50.1331C58.2821 50.032 58.0223 49.8718 57.8041 49.6631C57.5859 49.4543 57.4144 49.2018 57.3007 48.922C57.1871 48.6423 57.134 48.3416 57.1448 48.0399C57.0848 42.8099 57.1448 37.5899 57.1448 32.3699C57.135 32.1046 57.18 31.8401 57.2771 31.5931C57.3741 31.346 57.5211 31.1216 57.7088 30.9338C57.8965 30.7461 58.1209 30.5992 58.368 30.5021C58.6151 30.4051 58.8796 30.3601 59.1448 30.3699C60.4348 30.3199 61.7348 30.3699 63.0348 30.3699C63.4242 30.3626 63.8095 30.4497 64.1578 30.6239C64.5061 30.798 64.8071 31.054 65.0348 31.3699C66.4748 33.3699 68.3748 33.9299 70.7848 33.7299C73.1948 33.5299 75.7848 33.7299 78.2648 33.7299C78.5413 33.6861 78.824 33.7009 79.0944 33.7732C79.3649 33.8456 79.6171 33.9739 79.8348 34.1499L79.8248 49.8999ZM68.6048 46.7399C71.0748 46.7399 73.5348 46.7399 76.0048 46.7399C76.5648 46.7399 76.8548 46.6199 76.8448 45.9699C76.8448 43.8399 76.8448 41.7099 76.8448 39.5799C76.8448 38.9299 76.5948 38.6799 75.9548 38.6799C71.0948 38.6799 66.2348 38.6799 61.3648 38.6799C60.7448 38.6799 60.5748 38.9099 60.5748 39.4999C60.5748 41.6299 60.5748 43.7699 60.5748 45.8999C60.5748 46.5499 60.7548 46.7599 61.4148 46.7499C63.8248 46.7099 66.2148 46.7299 68.6048 46.7399Z" fill="#66C206"/>
<path d="M57.8253 79.5C57.2646 78.6044 57.002 77.5542 57.0753 76.5C57.0753 71.77 57.0753 67.05 57.0753 62.32C57.0243 61.9689 57.0564 61.6108 57.1688 61.2743C57.2813 60.9378 57.471 60.6324 57.7229 60.3825C57.9747 60.1327 58.2816 59.9453 58.6189 59.8354C58.9562 59.7256 59.3146 59.6963 59.6653 59.75C60.5253 59.75 61.3953 59.75 62.2553 59.75C62.7493 59.685 63.2517 59.7515 63.7118 59.9429C64.1719 60.1343 64.5732 60.4438 64.8753 60.84C66.3553 62.84 68.3153 63.34 70.7353 63.2C73.7338 63.0158 76.7417 63.0492 79.7353 63.3C79.7353 68.47 79.7353 73.63 79.7353 78.79C79.7353 79.39 79.6153 79.51 79.0153 79.51C72.0053 79.5 64.9053 79.5 57.8253 79.5ZM68.6253 76.31C71.0253 76.31 73.4153 76.31 75.8153 76.31C76.5853 76.31 76.8753 76.09 76.8153 75.31C76.8153 73.31 76.8153 71.31 76.8153 69.31C76.8153 68.55 76.5953 68.25 75.8153 68.25C71.0253 68.25 66.2253 68.25 61.4353 68.25C60.8053 68.25 60.5553 68.42 60.5653 69.09C60.5653 71.22 60.5653 73.35 60.5653 75.48C60.5653 76.14 60.7753 76.33 61.4153 76.32C63.8253 76.27 66.2253 76.29 68.6153 76.29L68.6253 76.31Z" fill="#66C206"/>
<path d="M21.1856 61.6801C15.8556 61.6801 10.5256 61.6201 5.18561 61.6801C4.69282 61.7047 4.20037 61.6254 3.74021 61.4474C3.28004 61.2694 2.86244 60.9966 2.5145 60.6468C2.16656 60.2969 1.89605 59.8779 1.72052 59.4167C1.54499 58.9556 1.46836 58.4627 1.49561 57.9701C1.65561 54.9701 1.43561 51.9101 1.56561 48.8801C1.66561 46.6901 1.46561 44.5101 1.51561 42.3201C1.56561 40.1301 1.43561 37.8601 1.56561 35.6301C1.69561 33.4001 1.45561 31.1901 1.51561 28.9701C1.57561 26.7501 1.63561 24.5001 1.51561 22.2801C1.53374 21.3709 1.90502 20.5045 2.55084 19.8643C3.19665 19.224 4.06629 18.8603 4.97561 18.8501C15.7956 18.8501 26.6156 18.8501 37.4356 18.8501C37.8894 18.8161 38.3452 18.8781 38.7734 19.0321C39.2017 19.186 39.5927 19.4284 39.921 19.7435C40.2493 20.0586 40.5075 20.4393 40.6789 20.8609C40.8503 21.2824 40.9309 21.7353 40.9156 22.1901C41.0556 25.5801 40.9856 28.9801 40.9156 32.3701C40.8456 35.7601 40.9156 39.1101 40.9156 42.4901C41.0367 43.9143 40.9321 45.3486 40.6056 46.7401C40.4956 47.0801 40.8156 47.5401 40.8256 47.9501C40.9789 51.5101 40.9789 55.0701 40.8256 58.6301C40.7768 59.4497 40.4138 60.219 39.8122 60.7778C39.2105 61.3366 38.4166 61.6419 37.5956 61.6301L21.1856 61.6801ZM21.2356 22.3201C16.1056 22.3201 10.9856 22.3201 5.85561 22.3201C5.17561 22.3201 4.94561 22.4801 4.95561 23.2001C4.95561 25.8001 4.95561 28.3901 4.95561 30.9901C4.95561 31.8401 5.17561 32.1301 6.07561 32.1301C16.1623 32.1301 26.2523 32.1301 36.3456 32.1301C37.3456 32.1301 37.5256 31.7701 37.5056 30.9101C37.5056 28.3801 37.5056 25.8501 37.5056 23.3201C37.5056 22.5401 37.3156 22.3201 36.5056 22.3201C31.4256 22.3301 26.3356 22.3201 21.2356 22.3201ZM21.1756 45.1301C26.2756 45.1301 31.3756 45.1301 36.4656 45.1301C37.3056 45.1301 37.5356 44.8901 37.4656 44.0701C37.4656 41.5301 37.4656 39.0001 37.4656 36.4701C37.4656 35.6601 37.2856 35.3001 36.3556 35.3001C26.2356 35.3001 16.1123 35.3001 5.98561 35.3001C5.13561 35.3001 4.90561 35.5601 4.91561 36.3801C4.91561 38.9401 4.91561 41.5101 4.91561 44.0701C4.91561 44.8901 5.11561 45.1301 5.91561 45.1301C11.0556 45.1101 16.1156 45.1301 21.1756 45.1301ZM21.1756 48.5901C16.0856 48.5901 10.9856 48.5901 5.89561 48.5901C5.19561 48.5901 4.89561 48.7101 4.89561 49.5101C4.89561 52.1101 4.89561 54.7101 4.89561 57.3001C4.89561 57.9801 5.07561 58.2301 5.78561 58.2301C16.0389 58.2301 26.2923 58.2301 36.5456 58.2301C37.2556 58.2301 37.4556 57.9801 37.4456 57.3001C37.4456 54.7701 37.4456 52.2401 37.4456 49.7101C37.4456 48.8401 37.2256 48.5701 36.3356 48.5801C31.3456 48.6101 26.2856 48.5901 21.2256 48.5901H21.1756Z" fill="#4A4A4A"/>
<path d="M42.7055 71.5C39.4155 71.5 36.1255 71.5 32.8255 71.5C29.1755 71.5 27.3755 68.43 27.6055 65.35C27.6021 65.276 27.6148 65.2022 27.6428 65.1336C27.6708 65.065 27.7134 65.0034 27.7677 64.9529C27.8219 64.9025 27.8865 64.8645 27.9569 64.8415C28.0274 64.8186 28.102 64.8112 28.1755 64.82C28.5455 64.82 28.9155 64.82 29.2755 64.82C29.8055 64.82 30.4355 64.67 30.8455 64.9C31.2555 65.13 30.9755 65.9 31.0555 66.37C31.0787 66.8228 31.2757 67.2491 31.6054 67.5602C31.9351 67.8713 32.3722 68.0432 32.8255 68.04C33.2255 68.04 33.6255 68.04 34.0255 68.04H52.7655C54.1055 68.04 54.1355 68.04 54.1355 69.36C54.1355 71.48 54.1355 71.48 51.9855 71.48L42.7055 71.5Z" fill="#4A4A4A"/>
<path d="M42.7156 9.03002C46.1456 9.03002 49.5756 9.03002 52.9956 9.03002C53.8656 9.03002 54.1656 9.33002 54.1556 10.19C54.1356 12.5 54.1656 12.5 51.8256 12.5H33.2956C31.7156 12.5 31.0256 13.13 31.0656 14.68C31.0656 15.51 30.8556 15.84 30.0656 15.68C29.7693 15.66 29.4719 15.66 29.1756 15.68C27.5956 15.68 27.5056 15.59 27.6656 14.05C27.7141 13.1361 27.9936 12.2493 28.478 11.4728C28.9625 10.6963 29.636 10.0554 30.4356 9.61002C31.122 9.22216 31.8972 9.01888 32.6856 9.02002L42.7156 9.03002Z" fill="#4A4A4A"/>
<path d="M49.085 42.02C47.655 42.02 46.225 42.02 44.795 42.02C44.245 42.02 44.045 41.84 44.055 41.27C44.145 38.05 43.575 38.63 46.615 38.59C48.775 38.59 50.935 38.59 53.095 38.59C53.875 38.59 54.155 38.82 54.155 39.59C54.155 42.02 54.155 42.02 51.775 42.02H49.085Z" fill="#4A4A4A"/>
<path d="M68.5956 17.18C66.2056 17.18 63.8156 17.18 61.4156 17.18C60.7556 17.18 60.5656 16.96 60.5756 16.32C60.5756 14.23 60.5756 12.13 60.5756 10.04C60.5756 9.43997 60.7356 9.21997 61.3556 9.21997C66.2456 9.21997 71.1356 9.21997 76.0256 9.21997C76.6056 9.21997 76.8556 9.39997 76.8456 10.02C76.8456 12.11 76.8456 14.21 76.8456 16.3C76.8456 16.95 76.6256 17.17 75.9856 17.16C73.5256 17.17 71.0556 17.18 68.5956 17.18Z" fill="#FDFDFD"/>
<path d="M68.6056 46.7399C66.2156 46.7399 63.8156 46.7399 61.4156 46.7399C60.7556 46.7399 60.5656 46.5399 60.5756 45.8899C60.5756 43.7599 60.5756 41.6199 60.5756 39.4899C60.5756 38.8999 60.7456 38.6699 61.3656 38.6699C66.2356 38.6699 71.0956 38.6699 75.9556 38.6699C76.5956 38.6699 76.8456 38.9199 76.8456 39.5699C76.8456 41.6999 76.8456 43.8299 76.8456 45.9599C76.8456 46.6099 76.5656 46.7399 76.0056 46.7299C73.5356 46.7199 71.0756 46.7399 68.6056 46.7399Z" fill="#FDFDFD"/>
<path d="M68.6155 76.29C66.2255 76.29 63.8255 76.29 61.4255 76.29C60.7855 76.29 60.5655 76.11 60.5755 75.45C60.5755 73.32 60.5755 71.19 60.5755 69.06C60.5755 68.39 60.8155 68.22 61.4455 68.22C66.2355 68.22 71.0355 68.22 75.8255 68.22C76.6255 68.22 76.8255 68.52 76.8255 69.28C76.8255 71.28 76.8255 73.28 76.8255 75.28C76.8255 76.08 76.5455 76.28 75.8255 76.28C73.4055 76.26 71.0155 76.29 68.6155 76.29Z" fill="#FDFDFD"/>
<path d="M21.2348 22.3201C26.3348 22.3201 31.4248 22.3201 36.5248 22.3201C37.3248 22.3201 37.5248 22.5401 37.5248 23.3201C37.5248 25.8501 37.5248 28.3801 37.5248 30.9101C37.5248 31.7701 37.3448 32.1401 36.3648 32.1301C26.2714 32.1301 16.1814 32.1301 6.09476 32.1301C5.19476 32.1301 4.95476 31.8401 4.97476 30.9901C4.97476 28.3901 4.97476 25.8001 4.97476 23.2001C4.97476 22.4801 5.19476 22.3201 5.87476 22.3201C10.9848 22.3301 16.1048 22.3201 21.2348 22.3201ZM13.0048 25.5001C11.8848 25.5001 10.7548 25.5001 9.62476 25.5001C9.19314 25.5042 8.77905 25.6715 8.46559 25.9682C8.15214 26.265 7.96251 26.6693 7.93476 27.1001C7.94992 27.5478 8.12792 27.9747 8.43538 28.3006C8.74284 28.6264 9.15863 28.8289 9.60476 28.8701C11.8648 28.8701 14.1248 28.8701 16.3848 28.8701C16.6167 28.8806 16.8484 28.8433 17.0653 28.7603C17.2821 28.6774 17.4796 28.5506 17.6453 28.388C17.8111 28.2253 17.9415 28.0303 18.0285 27.815C18.1155 27.5997 18.1572 27.3688 18.151 27.1367C18.1448 26.9046 18.0908 26.6762 17.9924 26.4659C17.8941 26.2556 17.7534 26.0677 17.5793 25.9142C17.4051 25.7606 17.2011 25.6446 16.9801 25.5733C16.7591 25.5021 16.5258 25.4771 16.2948 25.5001C15.2048 25.5001 14.1048 25.5001 13.0048 25.5001ZM27.8248 27.2601C27.85 27.0405 27.8288 26.818 27.7627 26.6071C27.6965 26.3962 27.5869 26.2016 27.4408 26.0357C27.2947 25.8698 27.1155 25.7364 26.9146 25.6442C26.7137 25.5519 26.4958 25.5028 26.2748 25.5001C26.0466 25.4657 25.8138 25.4807 25.592 25.5441C25.3701 25.6076 25.1646 25.718 24.9891 25.8678C24.8137 26.0176 24.6725 26.2034 24.5751 26.4126C24.4778 26.6217 24.4265 26.8494 24.4248 27.0801C24.4004 27.3114 24.4258 27.5452 24.4993 27.7659C24.5728 27.9865 24.6927 28.1889 24.8509 28.3594C25.0091 28.5299 25.2019 28.6646 25.4165 28.7544C25.631 28.8442 25.8623 28.8871 26.0948 28.8801C26.3172 28.8982 26.5411 28.8696 26.7518 28.7961C26.9626 28.7226 27.1557 28.6058 27.3186 28.4533C27.4815 28.3007 27.6107 28.1157 27.6979 27.9102C27.7851 27.7047 27.8283 27.4833 27.8248 27.2601ZM32.7248 25.5001C32.4842 25.4759 32.2412 25.5034 32.0121 25.5807C31.7829 25.6579 31.5729 25.7831 31.396 25.948C31.2192 26.1129 31.0795 26.3136 30.9863 26.5367C30.8932 26.7599 30.8487 27.0003 30.8559 27.242C30.8631 27.4837 30.9217 27.7211 31.0279 27.9383C31.1341 28.1555 31.2855 28.3476 31.4718 28.5017C31.6582 28.6558 31.8752 28.7683 32.1085 28.8319C32.3418 28.8954 32.586 28.9084 32.8248 28.8701C33.2784 28.8175 33.7004 28.6112 34.0206 28.2856C34.3408 27.9599 34.5398 27.5345 34.5848 27.0801C34.5173 26.6367 34.2919 26.2327 33.9501 25.9424C33.6083 25.652 33.1732 25.495 32.7248 25.5001Z" fill="#FDFDFD"/>
<path d="M21.1749 45.1301C16.1149 45.1301 11.0549 45.1301 5.99489 45.1301C5.14489 45.1301 4.93489 44.89 4.99489 44.07C5.05489 41.51 4.99489 38.9401 4.99489 36.3801C4.99489 35.5601 5.21489 35.3 6.06489 35.3C16.1849 35.3 26.3082 35.3 36.4349 35.3C37.3649 35.3 37.5549 35.6601 37.5449 36.4701C37.5449 39.0001 37.5449 41.53 37.5449 44.07C37.5449 44.89 37.3349 45.1301 36.5449 45.1301C31.3749 45.1101 26.2749 45.1301 21.1749 45.1301ZM12.9149 42.0401C14.0049 42.0401 15.1049 42.0401 16.1949 42.0401C16.4338 42.0582 16.6739 42.0268 16.9001 41.9478C17.1263 41.8689 17.3338 41.7441 17.5096 41.5812C17.6853 41.4183 17.8255 41.2209 17.9213 41.0013C18.0172 40.7817 18.0667 40.5447 18.0667 40.305C18.0667 40.0654 18.0172 39.8284 17.9213 39.6088C17.8255 39.3892 17.6853 39.1918 17.5096 39.0289C17.3338 38.866 17.1263 38.7412 16.9001 38.6623C16.6739 38.5833 16.4338 38.5519 16.1949 38.57C14.0349 38.57 11.8749 38.57 9.71489 38.57C9.47598 38.5519 9.23588 38.5833 9.00966 38.6623C8.78344 38.7412 8.57596 38.866 8.40024 39.0289C8.22451 39.1918 8.08431 39.3892 7.98844 39.6088C7.89257 39.8284 7.84308 40.0654 7.84308 40.305C7.84308 40.5447 7.89257 40.7817 7.98844 41.0013C8.08431 41.2209 8.22451 41.4183 8.40024 41.5812C8.57596 41.7441 8.78344 41.8689 9.00966 41.9478C9.23588 42.0268 9.47598 42.0582 9.71489 42.0401C10.8249 42.0601 11.8249 42.0401 12.9149 42.0401ZM27.8249 40.34C27.8384 40.1172 27.8076 39.8939 27.7344 39.6831C27.6611 39.4722 27.5468 39.278 27.398 39.1115C27.2492 38.9451 27.069 38.8098 26.8676 38.7134C26.6663 38.6171 26.4478 38.5615 26.2249 38.55C25.9932 38.5379 25.7615 38.5727 25.5437 38.6525C25.3258 38.7322 25.1264 38.8552 24.9573 39.014C24.7882 39.1728 24.653 39.3642 24.5598 39.5766C24.4665 39.789 24.4173 40.0181 24.4149 40.25C24.3919 40.4838 24.4172 40.7198 24.4895 40.9433C24.5617 41.1669 24.6791 41.3731 24.8346 41.5492C24.99 41.7253 25.1801 41.8675 25.3929 41.967C25.6057 42.0664 25.8367 42.1209 26.0715 42.1271C26.3064 42.1333 26.5399 42.091 26.7577 42.003C26.9755 41.9149 27.1728 41.7829 27.3373 41.6153C27.5018 41.4476 27.63 41.2478 27.7139 41.0284C27.7978 40.809 27.8356 40.5747 27.8249 40.34ZM32.7549 38.5601C32.5244 38.5439 32.2931 38.5772 32.0766 38.6578C31.86 38.7384 31.6632 38.8643 31.4994 39.0273C31.3355 39.1902 31.2084 39.3862 31.1266 39.6023C31.0447 39.8184 31.0101 40.0495 31.0249 40.28C31.0124 40.5102 31.0477 40.7405 31.1285 40.9563C31.2094 41.1722 31.3341 41.369 31.4947 41.5343C31.6553 41.6996 31.8484 41.8299 32.0619 41.917C32.2753 42.004 32.5045 42.0459 32.7349 42.0401C33.1896 41.9843 33.613 41.7794 33.9387 41.4573C34.2644 41.1352 34.4741 40.7141 34.5349 40.26C34.4583 39.8256 34.2455 39.4268 33.9273 39.1212C33.6092 38.8156 33.2021 38.6191 32.7649 38.5601H32.7549Z" fill="#FDFDFD"/>
<path d="M21.2252 48.5901C26.2852 48.5901 31.3452 48.5901 36.4052 48.5901C37.2952 48.5901 37.5352 48.8501 37.5152 49.7201C37.4552 52.2501 37.5152 54.7801 37.5152 57.3101C37.5152 57.9901 37.3252 58.2401 36.6152 58.2401C26.3685 58.2401 16.1152 58.2401 5.85521 58.2401C5.14521 58.2401 4.95521 57.9901 4.96521 57.3101C4.96521 54.7201 4.96521 52.1201 4.96521 49.5201C4.96521 48.7201 5.26521 48.5901 5.96521 48.6001C11.0352 48.6001 16.1352 48.5901 21.2252 48.5901ZM12.9952 55.0601C14.1252 55.0601 15.2552 55.0601 16.3852 55.0601C16.611 55.0666 16.8356 55.0253 17.0442 54.9387C17.2529 54.8522 17.4408 54.7225 17.5957 54.5582C17.7507 54.3938 17.869 54.1985 17.943 53.9851C18.0171 53.7717 18.0451 53.5451 18.0252 53.3201C18.0096 52.8868 17.823 52.4774 17.5063 52.1813C17.1896 51.8852 16.7685 51.7266 16.3352 51.7401C14.1352 51.7401 11.9352 51.7401 9.74521 51.7401C9.28156 51.7345 8.83404 51.9101 8.49787 52.2295C8.1617 52.5488 7.96342 52.9868 7.94521 53.4501C7.94449 53.6742 7.99029 53.8961 8.07971 54.1016C8.16912 54.3071 8.30022 54.4919 8.4647 54.6441C8.62918 54.7964 8.82347 54.9129 9.03527 54.9862C9.24708 55.0595 9.4718 55.0881 9.69521 55.0701C10.8252 55.0901 11.8952 55.0601 12.9952 55.0601ZM27.8252 53.4201C27.8413 53.1971 27.8095 52.9732 27.7321 52.7634C27.6546 52.5536 27.5332 52.3628 27.3761 52.2038C27.2189 52.0447 27.0296 51.9211 26.8207 51.8411C26.6119 51.7611 26.3884 51.7267 26.1652 51.7401C25.9342 51.7178 25.701 51.7461 25.482 51.8229C25.2629 51.8997 25.0632 52.0233 24.8967 52.1851C24.7303 52.3468 24.6009 52.5428 24.5178 52.7595C24.4346 52.9763 24.3996 53.2085 24.4152 53.4401C24.4054 53.6641 24.444 53.8876 24.5283 54.0954C24.6127 54.3032 24.7409 54.4903 24.9041 54.6441C25.0674 54.7978 25.2618 54.9146 25.4743 54.9864C25.6867 55.0582 25.9122 55.0833 26.1352 55.0601C26.3588 55.0843 26.5849 55.0589 26.7975 54.9858C27.0101 54.9126 27.204 54.7935 27.3653 54.637C27.5267 54.4804 27.6516 54.2902 27.7311 54.0798C27.8105 53.8695 27.8427 53.6442 27.8252 53.4201ZM31.0252 53.4201C31.0252 54.5401 31.6152 55.0801 32.7852 55.0601C33.2349 55.0528 33.6647 54.8736 33.9865 54.5593C34.3082 54.245 34.4974 53.8195 34.5152 53.3701C34.4647 52.9268 34.2558 52.5168 33.9268 52.2154C33.5979 51.914 33.1712 51.7417 32.7252 51.7301C31.5752 51.7401 31.0352 52.2801 31.0352 53.4201H31.0252Z" fill="#FDFDFD"/>
<path d="M13.0055 25.5C14.1055 25.5 15.2055 25.5 16.2955 25.5C16.5266 25.477 16.7599 25.502 16.9809 25.5732C17.2019 25.6445 17.4059 25.7605 17.58 25.9141C17.7542 26.0676 17.8949 26.2554 17.9932 26.4658C18.0916 26.6761 18.1456 26.9045 18.1518 27.1366C18.158 27.3687 18.1163 27.5996 18.0293 27.8149C17.9423 28.0302 17.8118 28.2252 17.6461 28.3879C17.4804 28.5505 17.2829 28.6773 17.066 28.7602C16.8492 28.8431 16.6175 28.8805 16.3855 28.87C14.1255 28.87 11.8655 28.87 9.60555 28.87C9.15942 28.8288 8.74362 28.6263 8.43616 28.3004C8.1287 27.9746 7.9507 27.5477 7.93555 27.1C7.96329 26.6692 8.15292 26.2649 8.46637 25.9681C8.77983 25.6713 9.19392 25.5041 9.62555 25.5C10.7555 25.5 11.8855 25.5 13.0055 25.5Z" fill="#66C206"/>
<path d="M27.8252 27.26C27.8275 27.4833 27.783 27.7046 27.6946 27.9096C27.6062 28.1146 27.4758 28.2989 27.3119 28.4506C27.1481 28.6022 26.9542 28.7179 26.743 28.7901C26.5317 28.8623 26.3076 28.8896 26.0852 28.87C25.8527 28.877 25.6215 28.8342 25.4069 28.7444C25.1924 28.6546 24.9995 28.5199 24.8413 28.3494C24.6831 28.1789 24.5633 27.9765 24.4898 27.7558C24.4163 27.5352 24.3909 27.3013 24.4152 27.07C24.4181 26.8392 24.4707 26.6117 24.5693 26.4029C24.6679 26.1942 24.8102 26.0091 24.9866 25.8602C25.163 25.7113 25.3694 25.602 25.5917 25.5399C25.8141 25.4777 26.0472 25.4642 26.2752 25.5C26.4962 25.5028 26.7142 25.5519 26.9151 25.6441C27.1159 25.7364 27.2952 25.8698 27.4412 26.0356C27.5873 26.2015 27.697 26.3962 27.7631 26.6071C27.8293 26.818 27.8504 27.0404 27.8252 27.26Z" fill="#66C206"/>
<path d="M32.7251 25.4999C33.1679 25.5075 33.5934 25.6728 33.9252 25.9661C34.257 26.2594 34.4732 26.6614 34.5351 27.0999C34.4882 27.5434 34.2944 27.9584 33.9846 28.2791C33.6748 28.5998 33.2666 28.8078 32.8251 28.8699C32.5863 28.9083 32.3422 28.8953 32.1089 28.8317C31.8756 28.7682 31.6585 28.6557 31.4721 28.5016C31.2858 28.3475 31.1345 28.1554 31.0283 27.9382C30.922 27.721 30.8634 27.4836 30.8562 27.2419C30.849 27.0002 30.8935 26.7597 30.9867 26.5366C31.0798 26.3135 31.2195 26.1128 31.3964 25.9479C31.5732 25.783 31.7833 25.6578 32.0124 25.5805C32.2415 25.5033 32.4845 25.4758 32.7251 25.4999Z" fill="#66C206"/>
<path d="M12.9153 42.0399C11.8553 42.0399 10.7853 42.0399 9.72533 42.0399C9.48641 42.0581 9.24632 42.0267 9.0201 41.9477C8.79387 41.8688 8.5864 41.7439 8.41067 41.5811C8.23494 41.4182 8.09475 41.2208 7.99888 41.0012C7.903 40.7816 7.85352 40.5445 7.85352 40.3049C7.85352 40.0653 7.903 39.8283 7.99888 39.6087C8.09475 39.3891 8.23494 39.1917 8.41067 39.0288C8.5864 38.8659 8.79387 38.7411 9.0201 38.6621C9.24632 38.5832 9.48641 38.5518 9.72533 38.5699C11.8853 38.5699 14.0453 38.5699 16.2053 38.5699C16.4442 38.5518 16.6843 38.5832 16.9106 38.6621C17.1368 38.7411 17.3443 38.8659 17.52 39.0288C17.6957 39.1917 17.8359 39.3891 17.9318 39.6087C18.0277 39.8283 18.0771 40.0653 18.0771 40.3049C18.0771 40.5445 18.0277 40.7816 17.9318 41.0012C17.8359 41.2208 17.6957 41.4182 17.52 41.5811C17.3443 41.7439 17.1368 41.8688 16.9106 41.9477C16.6843 42.0267 16.4442 42.0581 16.2053 42.0399C15.1053 42.0599 14.0053 42.0399 12.9153 42.0399Z" fill="#66C206"/>
<path d="M27.8255 40.34C27.8361 40.5746 27.7983 40.809 27.7144 41.0284C27.6305 41.2478 27.5023 41.4475 27.3378 41.6152C27.1733 41.7829 26.976 41.9148 26.7583 42.0029C26.5405 42.091 26.3069 42.1332 26.0721 42.127C25.8373 42.1208 25.6063 42.0663 25.3935 41.9669C25.1806 41.8675 24.9906 41.7253 24.8352 41.5491C24.6797 41.373 24.5622 41.1668 24.49 40.9433C24.4178 40.7197 24.3924 40.4837 24.4155 40.25C24.4178 40.018 24.4671 39.7889 24.5603 39.5765C24.6535 39.3641 24.7888 39.1727 24.9578 39.0139C25.1269 38.8551 25.3264 38.7321 25.5442 38.6524C25.7621 38.5727 25.9938 38.5378 26.2255 38.55C26.4484 38.5614 26.6668 38.617 26.8682 38.7134C27.0695 38.8097 27.2498 38.945 27.3986 39.1115C27.5473 39.2779 27.6617 39.4722 27.7349 39.683C27.8082 39.8939 27.839 40.1172 27.8255 40.34Z" fill="#66C206"/>
<path d="M32.7656 38.5601C33.2046 38.6172 33.6139 38.8128 33.934 39.1186C34.2541 39.4243 34.4684 39.8242 34.5456 40.2601C34.4848 40.7142 34.2751 41.1352 33.9494 41.4573C33.6236 41.7795 33.2003 41.9844 32.7456 42.0401C32.5151 42.046 32.286 42.0041 32.0725 41.917C31.8591 41.83 31.666 41.6997 31.5054 41.5344C31.3447 41.3691 31.2201 41.1723 31.1392 40.9564C31.0584 40.7406 31.0231 40.5103 31.0356 40.2801C31.0207 40.0495 31.0554 39.8185 31.1372 39.6024C31.2191 39.3863 31.3462 39.1902 31.51 39.0273C31.6739 38.8644 31.8707 38.7384 32.0872 38.6579C32.3038 38.5773 32.5351 38.544 32.7656 38.5601Z" fill="#66C206"/>
<path d="M12.9953 55.06C11.8953 55.06 10.7953 55.06 9.69532 55.06C9.47191 55.078 9.24719 55.0495 9.03538 54.9761C8.82358 54.9028 8.62929 54.7864 8.46481 54.6341C8.30033 54.4818 8.16923 54.2971 8.07981 54.0916C7.99039 53.886 7.9446 53.6642 7.94532 53.44C7.96352 52.9767 8.1618 52.5388 8.49798 52.2194C8.83415 51.9001 9.28167 51.7245 9.74532 51.73C11.9353 51.73 14.1353 51.73 16.3353 51.73C16.7687 51.7165 17.1897 51.8752 17.5064 52.1713C17.8231 52.4673 18.0097 52.8768 18.0253 53.31C18.0452 53.535 18.0172 53.7617 17.9432 53.9751C17.8691 54.1885 17.7508 54.3838 17.5958 54.5481C17.4409 54.7125 17.253 54.8422 17.0443 54.9287C16.8357 55.0152 16.6111 55.0566 16.3853 55.05C15.2553 55.1 14.1253 55.06 12.9953 55.06Z" fill="#66C206"/>
<path d="M27.8247 53.4201C27.8422 53.6442 27.8101 53.8695 27.7306 54.0798C27.6511 54.2901 27.5262 54.4803 27.3649 54.6369C27.2035 54.7935 27.0096 54.9126 26.797 54.9857C26.5844 55.0589 26.3583 55.0842 26.1347 55.0601C25.9117 55.0833 25.6863 55.0581 25.4738 54.9863C25.2614 54.9145 25.0669 54.7978 24.9037 54.644C24.7404 54.4903 24.6122 54.3032 24.5279 54.0954C24.4435 53.8876 24.4049 53.6641 24.4147 53.4401C24.3992 53.2085 24.4342 52.9762 24.5173 52.7595C24.6005 52.5428 24.7298 52.3468 24.8963 52.185C25.0628 52.0233 25.2625 51.8997 25.4815 51.8229C25.7006 51.746 25.9337 51.7178 26.1647 51.7401C26.3879 51.7267 26.6114 51.7611 26.8203 51.8411C27.0291 51.921 27.2184 52.0447 27.3756 52.2037C27.5328 52.3628 27.6541 52.5536 27.7316 52.7634C27.8091 52.9731 27.8408 53.197 27.8247 53.4201Z" fill="#66C206"/>
<path d="M31.0352 53.42C31.0352 52.28 31.5752 51.74 32.7352 51.73C33.1811 51.7416 33.6079 51.9139 33.9368 52.2153C34.2657 52.5167 34.4747 52.9267 34.5252 53.37C34.5077 53.8143 34.3227 54.2356 34.0073 54.5491C33.692 54.8627 33.2696 55.0452 32.8252 55.06C31.6252 55.08 31.0452 54.5 31.0352 53.42Z" fill="#66C206"/>
</g>
<defs>
<clipPath id="clip0_87_548">
<rect width="79" height="79" fill="white" transform="translate(0.825195 0.5)"/>
</clipPath>
</defs>
</svg>
