<svg width="80" height="80" viewBox="0 0 80 80" fill="none" xmlns="http://www.w3.org/2000/svg">
<g clip-path="url(#clip0_87_608)">
<path d="M60.8764 79.5C60.6068 79.4309 60.3546 79.3062 60.1359 79.134C59.9172 78.9618 59.7368 78.7459 59.6064 78.5C59.4364 78.07 59.0164 78.13 58.6564 78.13C57.4964 78.13 56.3264 78.13 55.1664 78.13C54.8317 78.1445 54.4979 78.0834 54.1901 77.9512C53.8822 77.819 53.6081 77.6192 53.388 77.3665C53.168 77.1138 53.0078 76.8148 52.9192 76.4916C52.8306 76.1685 52.816 75.8296 52.8764 75.5C52.8811 75.2685 52.9659 75.0459 53.1164 74.87C54.0923 73.9616 54.9735 72.9564 55.7464 71.87C55.8764 71.7 56.0564 71.47 56.3164 71.54C56.5764 71.61 56.5964 71.94 56.6464 72.19C56.6464 72.19 56.6464 72.26 56.6464 72.29C56.8464 74.29 56.9564 74.34 58.8864 74.15C59.0525 74.1594 59.2173 74.1161 59.3574 74.0263C59.4974 73.9366 59.6056 73.8048 59.6664 73.65C59.7562 73.4146 59.9042 73.2059 60.0965 73.0432C60.2889 72.8806 60.5194 72.7694 60.7664 72.72C62.2826 72.3595 63.8655 72.3904 65.3664 72.81C65.6831 72.9 65.9615 73.0917 66.1585 73.3555C66.3555 73.6194 66.4601 73.9407 66.4564 74.27C66.4564 75.44 66.4564 76.6 66.4564 77.76C66.4523 78.1621 66.3145 78.5514 66.0646 78.8665C65.8147 79.1816 65.467 79.4045 65.0764 79.5H60.8764Z" fill="black"/>
<path d="M14.8761 79.4999C14.422 79.3661 14.0302 79.0757 13.7702 78.6802C13.5102 78.2847 13.3989 77.8098 13.4561 77.3399C13.4561 76.4099 13.4561 75.4699 13.4561 74.5399C13.4633 74.0071 13.6749 73.4973 14.047 73.1159C14.4192 72.7344 14.9235 72.5104 15.4561 72.4899C16.3461 72.4899 17.2461 72.4899 18.1461 72.4899C18.564 72.4647 18.9807 72.556 19.3497 72.7538C19.7188 72.9516 20.0256 73.248 20.2361 73.6099C20.5561 74.1099 22.7861 74.3699 23.1561 73.9299C23.5261 73.4899 23.2961 72.9299 23.3561 72.3899C23.3561 72.0999 23.2561 71.6999 23.5461 71.5599C23.8361 71.4199 24.1261 71.7999 24.3261 72.0399C25.0806 73.0046 25.885 73.9292 26.7361 74.8099C26.9597 75.0903 27.0913 75.4329 27.1128 75.7909C27.1343 76.1489 27.0446 76.5048 26.8561 76.8099C26.6614 77.2009 26.3598 77.5287 25.9863 77.7553C25.6128 77.9819 25.1828 78.0979 24.7461 78.0899C23.6761 78.1399 22.6061 78.0899 21.5461 78.0899C20.9161 78.0899 20.3761 78.0899 20.0761 78.8099C19.8961 79.2399 19.3961 79.3099 19.0161 79.5099L14.8761 79.4999Z" fill="black"/>
<path d="M39.9561 33.1099H50.6461C52.4561 33.1099 53.0961 33.6899 53.3061 35.4699C53.391 36.5945 53.886 37.6488 54.6972 38.4323C55.5084 39.2158 56.5792 39.6741 57.7061 39.7199C59.1061 39.8399 59.7061 40.4499 59.7061 41.8199C59.7061 46.2499 59.7961 50.6899 59.6561 55.1199C59.4426 57.5971 58.8455 60.0261 57.8861 62.3199C56.137 67.028 53.1858 71.1962 49.3261 74.4099C46.9224 76.4726 44.1644 78.082 41.1861 79.1599C40.6256 79.329 40.0369 79.3842 39.4547 79.3224C38.8725 79.2606 38.3086 79.0829 37.7961 78.7999C33.3863 76.8833 29.5156 73.9116 26.5248 70.1467C23.5341 66.3817 21.5153 61.939 20.6461 57.2099C19.8861 53.2099 20.4261 49.2099 20.2661 45.2099C20.2661 44.0799 20.2661 42.9399 20.2661 41.8099C20.2661 40.4099 20.8361 39.8099 22.2061 39.6699C23.3661 39.6331 24.4693 39.1592 25.2946 38.3432C26.1199 37.5272 26.6062 36.4294 26.6561 35.2699C26.6416 34.9597 26.6955 34.65 26.8139 34.3629C26.9323 34.0757 27.1123 33.8181 27.3412 33.6083C27.5702 33.3984 27.8425 33.2414 28.1388 33.1484C28.4351 33.0553 28.7483 33.0285 29.0561 33.0699C32.6861 33.0999 36.3161 33.1099 39.9561 33.1099ZM39.9561 36.7199C37.0261 36.7199 34.0961 36.7199 31.1661 36.7199C30.8724 36.6791 30.5739 36.7484 30.3283 36.9146C30.0828 37.0808 29.9074 37.3321 29.8361 37.6199C29.4309 38.8779 28.7355 40.0231 27.8062 40.9628C26.8768 41.9026 25.7395 42.6107 24.4861 43.0299C23.7861 43.2699 23.8161 43.7599 23.8161 44.2999C23.8161 47.4699 23.8161 50.6399 23.8161 53.7999C23.8547 55.6943 24.1922 57.5708 24.8161 59.3599C26.0812 63.4574 28.3659 67.1666 31.4561 70.1399C33.7165 72.381 36.3621 74.1966 39.2661 75.4999C39.4567 75.6022 39.6674 75.6615 39.8833 75.6736C40.0993 75.6857 40.3153 75.6503 40.5161 75.5699C42.694 74.7126 44.7199 73.5106 46.5161 72.0099C49.0882 69.9109 51.2627 67.3672 52.9361 64.4999C54.6055 61.6526 55.6486 58.4822 55.9961 55.1999C56.3061 51.5199 56.0761 47.8099 56.0861 44.1099C56.1108 43.8808 56.0557 43.6501 55.93 43.457C55.8042 43.2638 55.6156 43.12 55.3961 43.0499C54.1716 42.6438 53.0587 41.9578 52.1457 41.0465C51.2326 40.1352 50.5445 39.0236 50.1361 37.7999C50.0398 37.4589 49.8186 37.1667 49.5165 36.9814C49.2145 36.7961 48.8537 36.7313 48.5061 36.7999C45.6761 36.7399 42.8461 36.7199 40.0061 36.7199H39.9561Z" fill="#66C206"/>
<path d="M12.1564 55.92C13.6064 55.92 14.8064 55.92 16.0064 55.92C16.2112 55.8876 16.4205 55.8981 16.6211 55.9507C16.8217 56.0033 17.0092 56.0969 17.1718 56.2257C17.3343 56.3544 17.4684 56.5155 17.5656 56.6987C17.6628 56.8819 17.7209 57.0832 17.7364 57.29C18.2764 59.95 18.3264 59.94 15.6764 59.94C13.8464 59.94 12.0164 59.94 10.1864 59.94C9.24636 59.94 8.86636 60.17 8.90636 61.16C8.94636 62.15 8.90636 62.79 9.90636 63.16C10.1012 63.2607 10.2614 63.4173 10.3665 63.6098C10.4717 63.8022 10.5169 64.0217 10.4964 64.24C10.4964 65.57 10.4964 66.9 10.4964 68.24C10.5044 68.4168 10.4773 68.5935 10.4167 68.7598C10.3561 68.9261 10.2631 69.0787 10.1432 69.2089C10.0233 69.3391 9.87871 69.4442 9.71791 69.5182C9.55711 69.5922 9.38325 69.6336 9.20636 69.64C7.85366 69.8392 6.47907 69.8392 5.12636 69.64C4.70299 69.5922 4.31391 69.3843 4.03877 69.059C3.76364 68.7336 3.62326 68.3154 3.64636 67.89C3.64636 66.76 3.64636 65.63 3.64636 64.5C3.625 64.1968 3.69444 63.8941 3.84583 63.6305C3.99721 63.3669 4.22369 63.1544 4.49636 63.02C4.75373 62.9019 4.9659 62.7037 5.10111 62.4549C5.23632 62.2061 5.28728 61.9202 5.24636 61.64C5.24636 60.48 5.24636 59.31 5.24636 58.15C5.24636 56.99 5.85636 56.5 6.96636 56.23C8.77636 55.74 10.5964 56.01 12.1564 55.92Z" fill="black"/>
<path d="M68.1358 56.27C69.7058 56.27 71.2658 56.27 72.8358 56.27C73.0858 56.2448 73.3383 56.2757 73.5749 56.3604C73.8115 56.4451 74.0262 56.5815 74.2034 56.7597C74.3807 56.9379 74.5159 57.1533 74.5994 57.3904C74.6828 57.6274 74.7123 57.8801 74.6858 58.13C74.6858 59.29 74.6858 60.46 74.6858 61.62C74.6395 61.8997 74.6845 62.1869 74.8142 62.4391C74.9439 62.6912 75.1513 62.8949 75.4058 63.02C75.7012 63.1782 75.9433 63.4201 76.1017 63.7155C76.26 64.0108 76.3275 64.3464 76.2958 64.68C76.2958 65.68 76.2958 66.75 76.2958 67.78C76.3139 68.0309 76.2795 68.2829 76.1948 68.5198C76.11 68.7567 75.9769 68.9734 75.8037 69.1559C75.6306 69.3385 75.4213 69.4829 75.1892 69.58C74.9571 69.6772 74.7073 69.7248 74.4558 69.72C73.3931 69.775 72.3284 69.775 71.2658 69.72C69.8958 69.64 69.4558 69.13 69.4458 67.72C69.4458 66.65 69.4458 65.58 69.4458 64.52C69.4129 64.1892 69.4826 63.8564 69.6454 63.5666C69.8082 63.2768 70.0562 63.0441 70.3558 62.9C70.6943 62.5362 70.928 62.0875 71.0318 61.6015C71.1357 61.1155 71.106 60.6104 70.9458 60.14C70.7158 59.81 70.3458 59.89 70.0258 59.89H63.1058C61.9458 59.89 61.6858 59.65 61.9458 58.53C62.5758 55.82 61.9458 56.27 64.5458 56.23C65.7458 56.25 66.9358 56.26 68.1358 56.27Z" fill="black"/>
<path d="M39.926 39.7201C42.206 39.7201 44.076 39.7201 45.926 39.7201C46.4274 39.6763 46.9309 39.7751 47.3786 40.0051C47.8262 40.2351 48.1997 40.587 48.456 41.0201C49.3807 42.5318 50.6569 43.7977 52.176 44.7101C52.4899 44.8747 52.7544 45.1198 52.9424 45.4203C53.1304 45.7208 53.2352 46.0658 53.246 46.4201C53.376 50.9101 53.576 55.4201 51.896 59.7301C50.0032 64.8887 46.2903 69.1777 41.456 71.7901C41 72.0534 40.4827 72.192 39.956 72.192C39.4294 72.192 38.9121 72.0534 38.456 71.7901C33.4576 69.0613 29.6723 64.5475 27.856 59.1501C26.9406 56.4312 26.5371 53.5661 26.666 50.7001C26.666 49.4301 26.666 48.1601 26.666 46.9001C26.6299 46.4303 26.7295 45.9601 26.9529 45.5453C27.1762 45.1305 27.514 44.7885 27.926 44.5601C29.4529 43.6566 30.7285 42.3844 31.636 40.8601C31.8017 40.5719 32.0366 40.3296 32.3194 40.155C32.6023 39.9804 32.9242 39.879 33.256 39.8601C35.616 39.5601 37.976 39.8201 39.926 39.7201Z" fill="#66C206"/>
<path d="M78.8761 31.7C77.8172 28.3402 75.7156 25.405 72.8761 23.32C71.464 22.2665 69.8902 21.4492 68.2161 20.9C67.9743 20.84 67.7533 20.7152 67.5771 20.539C67.4009 20.3628 67.2761 20.1419 67.2161 19.9C66.2404 16.4704 64.6292 13.2547 62.4661 10.42C58.5376 5.44221 52.9583 2.03361 46.7361 0.81C45.9073 0.796812 45.0824 0.692858 44.2761 0.5L39.0761 0.5C37.1965 0.6892 35.3342 1.02353 33.5061 1.5C27.7556 3.2871 22.8262 7.05769 19.5961 12.14C19.3405 12.6157 18.9613 13.0136 18.4984 13.2916C18.0355 13.5697 17.5061 13.7177 16.9661 13.72C16.6997 13.7355 16.4352 13.7756 16.1761 13.84C12.2399 14.6665 8.65193 16.6804 5.89615 19.61C2.45615 23.33 0.376145 27.6 0.456145 32.78C0.335266 34.7726 0.517337 36.772 0.996145 38.71C2.14611 42.5571 4.39069 45.9866 7.45615 48.58C9.84607 50.5414 12.6132 51.9913 15.5861 52.84C16.8961 53.23 17.2961 52.84 17.3061 51.55C17.2811 51.2505 17.2811 50.9495 17.3061 50.65C17.3568 50.4565 17.3639 50.2542 17.3268 50.0576C17.2897 49.861 17.2094 49.6752 17.0917 49.5134C16.974 49.3517 16.8218 49.2182 16.6462 49.1225C16.4706 49.0267 16.2759 48.9712 16.0761 48.96C14.2652 48.5142 12.564 47.7044 11.0761 46.58C9.25126 45.3648 7.70748 43.7733 6.54843 41.9123C5.38938 40.0512 4.64189 37.9638 4.35615 35.79C4.00713 33.6799 4.09322 31.5207 4.60912 29.4451C5.12502 27.3694 6.05983 25.4212 7.35615 23.72C8.66966 21.9403 10.3505 20.4639 12.2846 19.3907C14.2187 18.3175 16.361 17.6727 18.5661 17.5C19.7402 17.39 20.922 17.39 22.0961 17.5C23.0961 17.59 24.0961 17.86 25.0461 17.94C25.4948 18.0031 25.9507 17.8937 26.3218 17.6339C26.693 17.374 26.9518 16.9831 27.0461 16.54C27.118 16.2976 27.1391 16.043 27.1081 15.7921C27.0772 15.5412 26.9949 15.2994 26.8663 15.0817C26.7378 14.864 26.5658 14.6751 26.361 14.5269C26.1562 14.3786 25.9231 14.2742 25.6761 14.22C24.9161 14 24.1461 13.84 23.2661 13.62C24.5133 11.7449 26.0765 10.1005 27.8861 8.76C30.9867 6.43541 34.621 4.92598 38.4561 4.37C41.6168 3.89394 44.8442 4.1401 47.8961 5.09C52.2634 6.25459 56.1558 8.7586 59.0261 12.25C60.5916 14.1216 61.8475 16.2316 62.7461 18.5C63.3061 19.93 63.1961 20.05 61.6361 20.1C60.0761 20.15 59.6361 20.71 59.6361 22.1C59.6361 23.49 60.0361 23.85 61.6361 23.77C63.294 23.6798 64.9555 23.8588 66.5561 24.3C68.8789 24.9764 70.9605 26.3016 72.5561 28.12C73.9237 29.5933 74.9117 31.3778 75.4344 33.3188C75.9571 35.2599 75.9989 37.2991 75.5561 39.26C75.0023 42.0835 73.5204 44.6408 71.346 46.5252C69.1716 48.4097 66.4297 49.5131 63.5561 49.66C62.0361 49.79 62.8261 51.04 62.7161 51.79C62.6061 52.54 62.4561 53.28 63.5861 53.32C64.5131 53.3083 65.4358 53.1909 66.3361 52.97C68.9117 52.4526 71.3176 51.3012 73.3361 49.62C75.9148 47.5802 77.8349 44.8253 78.8561 41.7C79.8121 38.4362 79.8191 34.9676 78.8761 31.7Z" fill="black"/>
</g>
<defs>
<clipPath id="clip0_87_608">
<rect width="79.15" height="79" fill="white" transform="translate(0.456055 0.5)"/>
</clipPath>
</defs>
</svg>
