<svg width="80" height="80" viewBox="0 0 80 80" fill="none" xmlns="http://www.w3.org/2000/svg">
<g clip-path="url(#clip0_87_574)">
<path d="M6.10351 20.57C5.15795 20.6138 4.22056 20.377 3.4092 19.8895C2.59783 19.4019 1.94873 18.6854 1.54351 17.83C1.39105 17.5402 1.31207 17.2174 1.31351 16.89C1.19351 12.82 1.17351 8.75996 1.34351 4.69996C1.47121 3.68474 1.95191 2.74677 2.70146 2.05023C3.45101 1.3537 4.42166 0.942977 5.44351 0.889959H6.44351C22.6735 0.889959 38.9035 0.889959 55.1235 0.889959C55.7968 0.878004 56.4658 1.00031 57.0914 1.24975C57.7169 1.49918 58.2865 1.87074 58.7669 2.34273C59.2472 2.81472 59.6288 3.37768 59.8892 3.99874C60.1496 4.6198 60.2836 5.28652 60.2835 5.95996C60.2835 9.15996 60.2835 12.36 60.2835 15.56C60.2955 16.2148 60.1764 16.8655 59.9332 17.4736C59.6899 18.0817 59.3275 18.635 58.8671 19.1009C58.4068 19.5669 57.8579 19.936 57.2528 20.1865C56.6476 20.4371 55.9985 20.5641 55.3435 20.56C55.1135 20.56 54.8835 20.56 54.6435 20.56H6.89351C6.63351 20.5 6.36351 20.55 6.10351 20.57ZM30.5435 17.18H54.4335C56.3735 17.18 56.9135 16.65 56.9235 14.73V6.83996C56.9235 4.71996 56.4635 4.25996 54.3835 4.25996H9.60351C8.50351 4.25996 7.40351 4.25996 6.31351 4.25996C5.01351 4.29996 4.54351 4.79996 4.54351 6.08996C4.54351 9.02996 4.54351 11.96 4.54351 14.89C4.54351 16.82 4.90351 17.18 6.87351 17.18H30.5435Z" fill="#494949"/>
<path d="M55.3436 23.7099C56.6718 23.7592 57.9287 24.3231 58.8487 25.2823C59.7687 26.2415 60.2797 27.5208 60.2736 28.8499C60.2736 29.0499 60.2736 29.2499 60.2736 29.4499C60.2736 32.1799 60.2736 32.1699 57.5036 31.9999C57.0136 31.9999 56.8836 31.7999 56.9036 31.3499C56.9036 30.5499 56.9036 29.7499 56.9036 28.9499C56.9148 28.7201 56.8782 28.4905 56.796 28.2757C56.7138 28.0608 56.5879 27.8654 56.4261 27.7018C56.2644 27.5382 56.0704 27.4099 55.8565 27.3253C55.6426 27.2406 55.4135 27.2013 55.1836 27.2099C54.9436 27.2099 54.7136 27.2099 54.4836 27.2099C38.5636 27.2099 22.6503 27.2099 6.74359 27.2099C5.34359 27.2099 4.44359 27.7999 4.50359 29.4599C4.60359 32.4599 4.50359 35.3799 4.50359 38.3399C4.47101 38.5856 4.49287 38.8354 4.56762 39.0717C4.64237 39.308 4.76817 39.525 4.93611 39.7072C5.10405 39.8895 5.31003 40.0326 5.53943 40.1264C5.76884 40.2201 6.01606 40.2623 6.26359 40.2499C6.56359 40.2499 6.86359 40.2499 7.16359 40.2499H34.9636C36.1236 40.2499 36.1436 40.2499 35.6136 41.2499C35.2336 41.9799 34.8036 42.6899 34.4036 43.4099C34.1086 43.3651 33.8116 43.335 33.5136 43.3199H6.71359C6.42359 43.3199 6.04359 43.1499 5.83359 43.5499C4.95974 43.4734 4.1183 43.1823 3.3839 42.7026C2.6495 42.2229 2.04485 41.5693 1.62359 40.7999C1.33024 40.1341 1.21316 39.404 1.28359 38.6799C1.28359 35.3199 1.37359 31.9599 1.28359 28.5999C1.27167 27.9621 1.38567 27.3283 1.61907 26.7346C1.85247 26.141 2.20068 25.5992 2.64376 25.1404C3.08685 24.6815 3.6161 24.3145 4.20121 24.0605C4.78632 23.8064 5.41579 23.6703 6.05359 23.6599C6.22359 24.0699 6.57359 23.9999 6.90359 23.9999H54.5436C54.8336 24.0399 55.2336 24.1999 55.3436 23.7099Z" fill="#494949"/>
<path d="M32.5936 46.91C32.5794 47.2321 32.4755 47.5438 32.2936 47.81C32.1534 48.0202 32.0786 48.2673 32.0786 48.52C32.0786 48.7727 32.1534 49.0197 32.2936 49.23C32.7936 50.07 32.7936 50.08 31.8436 50.08C24.9836 50.08 18.1236 50.08 11.2636 50.08C9.69357 50.08 8.13357 50.14 6.57357 50.08C6.30517 50.0572 6.03503 50.0933 5.78202 50.1857C5.52902 50.2781 5.29925 50.4247 5.10878 50.6152C4.91831 50.8057 4.77173 51.0354 4.67929 51.2884C4.58684 51.5414 4.55076 51.8116 4.57357 52.08C4.66357 54.87 4.67357 57.67 4.57357 60.47C4.49357 62.69 5.21357 63.11 7.17357 63.1C17.6636 63.1 28.1736 63.16 38.6436 63.02C39.4319 62.9288 40.2281 63.1036 40.9057 63.5167C41.5833 63.9298 42.1035 64.5575 42.3836 65.3C42.4436 65.42 42.3836 65.58 42.5136 65.67C43.2336 66.45 42.7036 66.51 42.0536 66.51H28.6936C21.3036 66.5 13.9036 66.5 6.54357 66.5C5.41348 66.5322 4.29727 66.2445 3.32357 65.67C3.32357 65.52 3.25357 65.47 3.12357 65.54L2.91357 65.31C2.91357 65.17 2.91357 65.1 2.71357 65.16L2.51357 64.91C2.51357 64.76 2.46357 64.7 2.31357 64.76L2.10357 64.5C2.10357 64.37 2.10357 64.3 1.93357 64.34C1.5288 63.7736 1.30878 63.0961 1.30357 62.4C1.30357 58.54 1.23357 54.69 1.30357 50.84C1.37228 49.8302 1.79335 48.8766 2.49332 48.1456C3.19329 47.4145 4.12772 46.9524 5.13357 46.84L5.82357 46.73C6.2213 46.8977 6.65999 46.9429 7.08357 46.86L32.5936 46.91Z" fill="#494949"/>
<path d="M55.3437 23.7101C55.2337 24.2001 54.8337 24.0401 54.5337 24.0401H6.86367C6.53367 24.0401 6.18367 24.1101 6.01367 23.7001C6.13867 22.6583 6.16879 21.6073 6.10367 20.5601C6.36367 20.5601 6.63367 20.5601 6.89367 20.5601H54.6437C54.8837 20.5601 55.1137 20.5601 55.3437 20.5601V23.7101Z" fill="#66C206"/>
<path d="M56.924 50.08C58.614 50.08 60.314 50.08 62.014 50.08C62.724 50.08 63.014 50.16 62.834 51.02C62.194 53.56 61.644 56.12 61.074 58.68C60.504 61.24 59.904 64.04 59.284 66.68C58.824 68.68 58.234 70.54 57.854 72.5C57.6009 73.3504 57.417 74.2199 57.304 75.1C57.304 75.36 57.304 75.67 56.914 75.65C56.524 75.63 56.594 75.31 56.534 75.07C56.054 72.98 55.534 70.9 55.064 68.82C54.724 67.43 54.394 66.02 54.124 64.61C53.854 63.2 53.544 61.89 53.174 60.5L52.174 56.09C51.784 54.39 51.434 52.68 50.974 50.99C50.714 50.05 51.154 49.99 51.854 49.99C53.544 50.1 55.224 50.08 56.924 50.08Z" fill="#66C206"/>
<path d="M42.164 50.0799C43.564 50.0799 44.964 50.1599 46.354 50.0799C46.5267 50.0438 46.7051 50.045 46.8773 50.0834C47.0495 50.1218 47.2116 50.1965 47.3526 50.3025C47.4936 50.4085 47.6104 50.5434 47.6951 50.6982C47.7799 50.8529 47.8306 51.024 47.844 51.1999C48.354 53.3299 48.844 55.4499 49.384 57.5799C50.274 61.1399 51.204 64.6999 52.094 68.2699C52.674 70.6299 53.184 73.0099 53.784 75.3599C54.1196 76.3395 54.3836 77.3421 54.574 78.3599C54.574 78.5699 54.814 78.8299 54.494 78.9399C54.174 79.0499 54.174 78.6799 54.074 78.5099C52.654 76.2299 51.254 73.9399 49.844 71.6499C47.6973 68.1499 45.544 64.6532 43.384 61.1599C41.284 57.7699 39.194 54.3699 37.074 50.9999C36.624 50.2899 36.764 50.1099 37.564 50.1199C39.094 50.1099 40.634 50.0799 42.164 50.0799Z" fill="#66C206"/>
<path d="M77.2042 50.24L59.4442 78.92C59.3188 77.9005 59.4637 76.8659 59.8642 75.92C60.7942 71.98 61.7942 68.06 62.7942 64.13C63.5342 61.2 64.3242 58.27 65.0642 55.33C65.3942 54.02 65.6842 52.71 65.9442 51.39C66.1242 50.54 66.4142 50.03 67.4742 50.06C70.3342 50.15 73.1942 50.06 76.0642 50.06C76.4536 50.0067 76.8501 50.0693 77.2042 50.24Z" fill="#66C206"/>
<path d="M32.5938 46.9099H7.10375C6.68017 46.9928 6.24147 46.9476 5.84375 46.7799C6.06363 46.2822 6.1772 45.744 6.1772 45.1999C6.1772 44.6558 6.06363 44.1176 5.84375 43.6199C6.05375 43.2199 6.43375 43.3899 6.72375 43.3899H33.5438C33.8417 43.405 34.1388 43.4351 34.4338 43.4799C33.986 44.7046 33.3665 45.8595 32.5938 46.9099Z" fill="#66C206"/>
<path d="M64.6541 35.17H69.1441C69.7441 35.17 70.0041 35.17 69.6241 35.95C68.1941 38.7 66.8641 41.5 65.4841 44.27C65.1141 45.02 64.8441 45.04 64.4841 44.35C62.8741 41.65 61.2641 38.95 59.6841 36.24C59.1441 35.31 59.2441 35.18 60.3041 35.17C61.7141 35.16 63.1841 35.17 64.6541 35.17Z" fill="#66C206"/>
<path d="M49.3435 35.1699C50.7735 35.1699 52.2035 35.1699 53.6335 35.1699C54.6335 35.1699 54.7435 35.3099 54.2535 36.1699C52.6535 38.9033 51.0401 41.6266 49.4135 44.3399C49.0935 44.8699 48.7835 45.1799 48.4135 44.3399C47.0535 41.5199 45.6735 38.7199 44.2435 35.9399C43.9035 35.2799 44.1135 35.1899 44.6935 35.1899L49.3435 35.1699Z" fill="#66C206"/>
<path d="M56.9442 46.8801H52.4442C51.8042 46.8801 51.5642 46.7101 51.9542 46.0701C53.4742 43.5701 54.9842 41.0601 56.4842 38.5401C56.8742 37.8801 57.0742 38.0401 57.4042 38.6001C58.8942 41.1201 60.4042 43.6001 61.9342 46.1201C62.2842 46.7001 62.0342 46.8901 61.4342 46.8901C59.9342 46.8701 58.4342 46.8801 56.9442 46.8801Z" fill="#66C206"/>
<path d="M41.1641 46.88C39.7941 46.88 38.4341 46.88 37.0641 46.88C36.4641 46.88 36.3641 46.7 36.6241 46.18C38.0341 43.36 39.4141 40.52 40.8341 37.7C40.8843 37.6007 40.9547 37.5129 41.0408 37.4423C41.1269 37.3717 41.2268 37.3198 41.3341 37.29C41.5741 37.29 41.5141 37.58 41.5941 37.75C42.9741 40.48 44.3441 43.21 45.7441 45.94C46.0941 46.62 45.9541 46.94 45.1541 46.88C43.8241 46.86 42.5441 46.88 41.1641 46.88Z" fill="#66C206"/>
<path d="M72.4735 37.29C73.0635 37.47 73.1435 38.08 73.3735 38.52C74.6435 41.02 75.8335 43.52 77.1035 46.07C77.4335 46.71 77.3335 46.89 76.6535 46.88C73.9935 46.88 71.3335 46.88 68.6535 46.88C67.7835 46.88 67.7535 46.45 68.0435 45.88C69.5435 43.02 71.0035 40.15 72.4735 37.29Z" fill="#66C206"/>
<path d="M17.5442 33.6299C17.5442 33.0599 17.5442 32.4999 17.5442 31.9299C17.5428 31.7195 17.5837 31.511 17.6645 31.3167C17.7453 31.1224 17.8643 30.9463 18.0145 30.7989C18.1647 30.6515 18.343 30.5358 18.5388 30.4587C18.7346 30.3816 18.9439 30.3446 19.1542 30.3499C20.2442 30.3499 21.3442 30.3499 22.4442 30.3499C22.6678 30.3374 22.8916 30.3714 23.1014 30.4497C23.3112 30.5281 23.5025 30.649 23.6632 30.805C23.8239 30.961 23.9505 31.1486 24.035 31.356C24.1195 31.5634 24.1601 31.7861 24.1542 32.0099C24.1542 33.0999 24.1542 34.1999 24.1542 35.2899C24.1573 35.5292 24.1112 35.7666 24.0189 35.9873C23.9266 36.2081 23.79 36.4076 23.6176 36.5735C23.4451 36.7393 23.2405 36.8681 23.0163 36.9518C22.7921 37.0355 22.5532 37.0723 22.3142 37.0599H19.4342C19.1825 37.093 18.9266 37.0687 18.6857 36.9887C18.4448 36.9087 18.2251 36.7751 18.0432 36.598C17.8614 36.421 17.722 36.205 17.6355 35.9663C17.5491 35.7276 17.5179 35.4724 17.5442 35.2199V33.6299Z" fill="#66C206"/>
<path d="M7.73412 33.5899C7.73412 33.0199 7.73412 32.4599 7.73412 31.8899C7.73275 31.6856 7.77231 31.4831 7.85047 31.2943C7.92863 31.1055 8.04381 30.9343 8.18922 30.7908C8.33462 30.6472 8.5073 30.5343 8.69707 30.4586C8.88683 30.3828 9.08984 30.3459 9.29412 30.3499C10.4241 30.3499 11.5541 30.3499 12.6941 30.3499C12.9094 30.3459 13.1233 30.3849 13.3233 30.4645C13.5233 30.5441 13.7055 30.6628 13.8591 30.8137C14.0127 30.9645 14.1347 31.1444 14.218 31.3429C14.3013 31.5415 14.3442 31.7546 14.3441 31.9699C14.3441 33.0699 14.3441 34.1699 14.3441 35.2699C14.3468 35.5066 14.302 35.7414 14.2124 35.9604C14.1228 36.1795 13.9901 36.3783 13.8223 36.5452C13.6545 36.7121 13.4549 36.8436 13.2354 36.9321C13.0158 37.0205 12.7808 37.0639 12.5441 37.0599C11.5441 37.0599 10.4841 37.0599 9.44412 37.0599C9.22407 37.0626 9.0057 37.0212 8.80188 36.9383C8.59805 36.8553 8.41288 36.7324 8.25727 36.5768C8.10166 36.4211 7.97875 36.236 7.89578 36.0321C7.8128 35.8283 7.77144 35.61 7.77412 35.3899C7.71412 34.7899 7.72412 34.1899 7.73412 33.5899Z" fill="#66C206"/>
<path d="M10.8835 59.89C7.88348 60.02 7.61348 59.71 7.72348 56.77C7.72348 56.17 7.72348 55.57 7.72348 54.97C7.70675 54.7549 7.73511 54.5387 7.80675 54.3352C7.87839 54.1316 7.99173 53.9453 8.13951 53.7881C8.2873 53.6309 8.46627 53.5063 8.66498 53.4223C8.86369 53.3382 9.07776 53.2966 9.29348 53.3C10.4635 53.3 11.6235 53.3 12.7835 53.3C13.2035 53.3156 13.6007 53.4949 13.8903 53.7994C14.18 54.104 14.339 54.5098 14.3335 54.93C14.3335 56.06 14.3335 57.19 14.3335 58.32C14.3284 58.5328 14.2809 58.7423 14.1938 58.9365C14.1066 59.1307 13.9817 59.3055 13.8262 59.4508C13.6706 59.596 13.4877 59.7088 13.2881 59.7825C13.0884 59.8562 12.8761 59.8894 12.6635 59.88L10.8835 59.89Z" fill="#66C206"/>
<path d="M20.8041 59.89H19.1041C18.8933 59.8931 18.6841 59.8528 18.4895 59.7716C18.2949 59.6905 18.119 59.5703 17.9727 59.4184C17.8265 59.2665 17.713 59.0862 17.6393 58.8887C17.5655 58.6912 17.5332 58.4806 17.5441 58.27C17.5441 57.21 17.5441 56.14 17.5441 55.08C17.5243 54.8498 17.5534 54.6179 17.6294 54.3997C17.7055 54.1815 17.8268 53.9818 17.9854 53.8137C18.144 53.6457 18.3364 53.513 18.5499 53.4245C18.7633 53.336 18.9931 53.2935 19.2241 53.3C20.3241 53.3 21.4241 53.3 22.5241 53.3C22.7413 53.2915 22.9579 53.3282 23.1602 53.4077C23.3625 53.4872 23.5461 53.6079 23.6993 53.7621C23.8525 53.9162 23.9721 54.1005 24.0504 54.3033C24.1287 54.5061 24.164 54.7229 24.1541 54.94C24.1541 56 24.1541 57.06 24.1541 58.13C24.1832 58.3681 24.1577 58.6097 24.0796 58.8365C24.0014 59.0633 23.8726 59.2693 23.703 59.4389C23.5334 59.6086 23.3274 59.7373 23.1006 59.8155C22.8738 59.8936 22.6322 59.9191 22.3941 59.89H20.8041Z" fill="#66C206"/>
<path d="M40.5438 32.0901C39.8138 32.0901 39.0838 32.0401 38.3638 31.9401C37.3638 31.8101 37.1938 31.0801 37.2338 30.2501C37.2738 29.4201 37.6338 28.8001 38.5138 28.7501C39.8438 28.6901 41.1738 28.7501 42.5138 28.7501C42.9046 28.8046 43.2632 28.9967 43.5253 29.2917C43.7873 29.5868 43.9357 29.9655 43.9438 30.3601C43.9379 30.7721 43.7842 31.1684 43.5108 31.4768C43.2373 31.7851 42.8622 31.985 42.4538 32.0401C41.8238 32.0401 41.1938 32.0401 40.5638 32.0401L40.5438 32.0901Z" fill="#66C206"/>
<path d="M50.3641 28.73C50.9641 28.73 51.5641 28.73 52.1641 28.73C52.5661 28.7557 52.9449 28.9276 53.2289 29.2133C53.513 29.499 53.6827 29.8787 53.706 30.2809C53.7294 30.6831 53.6048 31.0799 53.3558 31.3966C53.1068 31.7133 52.7505 31.9279 52.3541 32C50.9972 32.13 49.631 32.13 48.2741 32C47.2741 31.87 47.0741 31.14 47.0941 30.26C47.0701 30.0767 47.0851 29.8905 47.1382 29.7135C47.1913 29.5365 47.2813 29.3727 47.4022 29.2329C47.5231 29.0931 47.6722 28.9805 47.8397 28.9024C48.0072 28.8244 48.1893 28.7826 48.3741 28.78C49.0341 28.72 49.7041 28.78 50.3741 28.78L50.3641 28.73Z" fill="#66C206"/>
<path d="M1.93355 64.3601C2.07355 64.3601 2.12355 64.3601 2.10355 64.5201H1.89355L1.93355 64.3601Z" fill="#66C206"/>
<path d="M2.28396 64.7901C2.43396 64.7301 2.49396 64.7901 2.48396 64.9401C2.47396 65.0901 2.24396 64.9701 2.28396 64.7901Z" fill="#66C206"/>
<path d="M2.68435 65.19C2.83435 65.13 2.89435 65.19 2.88435 65.34C2.87435 65.49 2.64435 65.37 2.68435 65.19Z" fill="#66C206"/>
<path d="M3.09398 65.5699C3.22398 65.4999 3.29398 65.5699 3.29398 65.6999H3.08398L3.09398 65.5699Z" fill="#66C206"/>
<path d="M30.5442 17.18H6.86418C4.86418 17.18 4.53418 16.82 4.53418 14.89C4.53418 11.96 4.53418 9.03001 4.53418 6.09001C4.54418 4.80001 5.01418 4.30001 6.31418 4.26001C7.40418 4.26001 8.50418 4.26001 9.60418 4.26001H54.3842C56.4642 4.26001 56.9142 4.72001 56.9242 6.84001V14.73C56.9242 16.65 56.3742 17.18 54.4342 17.18H30.5442ZM24.1742 10.7V9.30001C24.1742 8.12001 23.7442 7.53001 22.5942 7.42001C21.407 7.30498 20.2114 7.30498 19.0242 7.42001C17.9442 7.50001 17.5442 8.08001 17.5442 9.22001V12.1C17.4968 12.3635 17.512 12.6344 17.5884 12.8909C17.6649 13.1475 17.8005 13.3825 17.9844 13.5771C18.1682 13.7716 18.3952 13.9203 18.647 14.0111C18.8988 14.102 19.1685 14.1324 19.4342 14.1C19.8642 14.1 20.3042 14.1 20.7342 14.1C23.7742 14.15 24.3342 13.89 24.1742 10.7ZM7.73418 10.61C7.73418 11.17 7.73418 11.74 7.73418 12.3C7.73418 13.4 8.12418 13.94 9.20418 14.03C10.4246 14.1751 11.6591 14.1549 12.8742 13.97C13.0877 13.95 13.2952 13.888 13.4847 13.7876C13.6742 13.6872 13.842 13.5504 13.9786 13.3851C14.1151 13.2197 14.2177 13.029 14.2805 12.824C14.3432 12.6189 14.3649 12.4035 14.3442 12.19C14.3442 11.19 14.3442 10.19 14.3442 9.19001C14.3591 8.98162 14.3326 8.77235 14.2661 8.57429C14.1996 8.37623 14.0945 8.19333 13.9569 8.03616C13.8192 7.87899 13.6518 7.75068 13.4642 7.65865C13.2767 7.56662 13.0727 7.5127 12.8642 7.50001C11.6865 7.31352 10.4891 7.28662 9.30418 7.42001C8.12418 7.50001 7.73418 8.01001 7.73418 9.21001C7.72418 9.68001 7.73418 10.14 7.73418 10.61ZM40.5442 12.3H38.7542C38.5493 12.3026 38.347 12.3456 38.1587 12.4264C37.9704 12.5072 37.7999 12.6243 37.6569 12.771C37.5139 12.9177 37.4012 13.0912 37.3252 13.2815C37.2493 13.4718 37.2115 13.6751 37.2142 13.88C37.2142 14.88 37.5842 15.55 38.5542 15.62C39.8431 15.695 41.1353 15.695 42.4242 15.62C42.6401 15.6079 42.8513 15.5516 43.0446 15.4546C43.238 15.3576 43.4093 15.2219 43.548 15.056C43.6868 14.8901 43.79 14.6974 43.8513 14.49C43.9125 14.2825 43.9305 14.0647 43.9042 13.85C43.8885 13.4221 43.7041 13.0177 43.3911 12.7254C43.0782 12.433 42.6622 12.2765 42.2342 12.29C41.6742 12.29 41.1142 12.31 40.5442 12.3ZM40.4842 9.13001H42.1842C42.405 9.1394 42.6255 9.10433 42.8325 9.02688C43.0395 8.94943 43.2288 8.83117 43.3893 8.67914C43.5497 8.5271 43.6779 8.34439 43.7664 8.14183C43.8548 7.93928 43.9017 7.72102 43.9042 7.50001C43.9098 7.05226 43.7405 6.61999 43.4324 6.29507C43.1243 5.97015 42.7016 5.7782 42.2542 5.76001C41.0842 5.76001 39.9142 5.76001 38.7542 5.76001C38.5288 5.73912 38.3017 5.77164 38.0912 5.85495C37.8808 5.93826 37.6929 6.07 37.5429 6.23949C37.3929 6.40898 37.285 6.61144 37.2279 6.83045C37.1707 7.04946 37.1661 7.27885 37.2142 7.50001C37.2012 7.72316 37.2355 7.94654 37.3147 8.15557C37.3939 8.36459 37.5163 8.55457 37.6739 8.7131C37.8314 8.87163 38.0207 8.99515 38.2292 9.0756C38.4378 9.15606 38.6609 9.19163 38.8842 9.18001L40.4842 9.13001ZM50.4242 12.31C49.7581 12.2695 49.0902 12.2695 48.4242 12.31C48.0555 12.3282 47.7086 12.4902 47.458 12.7613C47.2075 13.0324 47.0733 13.391 47.0842 13.76C47.0842 14.64 47.2042 15.43 48.2042 15.56C49.6182 15.745 51.0502 15.745 52.4642 15.56C52.6686 15.5257 52.8639 15.45 53.038 15.3375C53.2121 15.2249 53.3614 15.078 53.4766 14.9057C53.5918 14.7333 53.6705 14.5392 53.7079 14.3353C53.7453 14.1314 53.7407 13.922 53.6942 13.72C53.6717 13.3368 53.5061 12.9761 53.2301 12.7094C52.9541 12.4426 52.5879 12.2894 52.2042 12.28L50.4242 12.31ZM50.3342 9.13001H51.9242C52.1449 9.14634 52.3667 9.1189 52.5768 9.04924C52.7869 8.97959 52.9812 8.86911 53.1484 8.72415C53.3157 8.57918 53.4527 8.4026 53.5515 8.20453C53.6503 8.00647 53.709 7.79083 53.7242 7.57001C53.7532 7.33901 53.7318 7.10446 53.6615 6.88253C53.5911 6.6606 53.4734 6.45657 53.3166 6.28451C53.1597 6.11246 52.9674 5.97646 52.7529 5.88591C52.5384 5.79536 52.3069 5.75241 52.0742 5.76001C50.9042 5.76001 49.7442 5.76001 48.5842 5.76001C48.3753 5.74265 48.1653 5.77273 47.9697 5.84802C47.7741 5.92331 47.5981 6.04184 47.4548 6.19476C47.3115 6.34769 47.2046 6.53103 47.1421 6.73109C47.0797 6.93114 47.0633 7.14272 47.0942 7.35001C47.0579 7.58948 47.0778 7.83412 47.1524 8.06454C47.2271 8.29496 47.3543 8.50485 47.5241 8.67756C47.6939 8.85028 47.9016 8.98108 48.1307 9.05961C48.3599 9.13814 48.6041 9.16225 48.8442 9.13001H50.3342Z" fill="#FBFCFD"/>
<path d="M24.1743 10.7C24.3343 13.89 23.7743 14.15 20.7443 14.08C20.3143 14.08 19.8743 14.08 19.4443 14.08C19.1786 14.1124 18.909 14.082 18.6572 13.9911C18.4053 13.9003 18.1784 13.7516 17.9945 13.5571C17.8106 13.3625 17.675 13.1275 17.5986 12.8709C17.5221 12.6144 17.507 12.3435 17.5543 12.08V9.21999C17.5443 8.07999 17.9443 7.49999 19.0243 7.39999C20.2115 7.28496 21.4071 7.28496 22.5943 7.39999C23.7443 7.50999 24.1543 8.09999 24.1743 9.27999V10.7Z" fill="#66C206"/>
<path d="M7.73394 10.61C7.73394 10.14 7.73394 9.68003 7.73394 9.21003C7.73394 8.01003 8.12394 7.47003 9.30394 7.38003C10.4906 7.25985 11.6881 7.30022 12.8639 7.50003C13.0743 7.51262 13.28 7.56716 13.469 7.66044C13.6579 7.75373 13.8263 7.88387 13.9642 8.04321C14.1021 8.20255 14.2068 8.38786 14.272 8.58825C14.3372 8.78863 14.3617 9.00004 14.3439 9.21003C14.3439 10.21 14.3439 11.21 14.3439 12.21C14.3646 12.4235 14.343 12.6389 14.2802 12.844C14.2175 13.0491 14.1149 13.2397 13.9783 13.4051C13.8418 13.5705 13.6739 13.7072 13.4844 13.8076C13.2949 13.908 13.0875 13.97 12.8739 13.99C11.6589 14.1749 10.4244 14.1951 9.20394 14.05C8.12394 13.96 7.74394 13.42 7.73394 12.32C7.72394 11.74 7.73394 11.17 7.73394 10.61Z" fill="#66C206"/>
<path d="M40.5438 12.2999C41.1138 12.2999 41.6738 12.2999 42.2338 12.2999C42.6618 12.2864 43.0778 12.4429 43.3907 12.7352C43.7037 13.0276 43.8881 13.4319 43.9038 13.8599C43.9301 14.0746 43.9121 14.2924 43.8509 14.4998C43.7896 14.7073 43.6864 14.8999 43.5476 15.0659C43.4089 15.2318 43.2376 15.3675 43.0442 15.4645C42.8509 15.5615 42.6397 15.6178 42.4238 15.6299C41.1349 15.7049 39.8427 15.7049 38.5538 15.6299C37.5538 15.5599 37.1738 14.9299 37.2138 13.8899C37.2111 13.685 37.2489 13.4816 37.3248 13.2914C37.4008 13.1011 37.5135 12.9276 37.6565 12.7809C37.7995 12.6342 37.97 12.5171 38.1583 12.4362C38.3466 12.3554 38.5489 12.3125 38.7538 12.3099H40.5438V12.2999Z" fill="#66C206"/>
<path d="M40.4844 9.12988H38.8844C38.6655 9.14098 38.4468 9.10673 38.2418 9.02927C38.0368 8.95181 37.85 8.83282 37.6932 8.67977C37.5364 8.52671 37.4129 8.34289 37.3305 8.13985C37.2481 7.93681 37.2086 7.71893 37.2144 7.49988C37.1769 7.28302 37.1897 7.06046 37.2516 6.84929C37.3136 6.63812 37.4232 6.44397 37.5719 6.28174C37.7206 6.11951 37.9045 5.99353 38.1095 5.91347C38.3145 5.8334 38.5351 5.80139 38.7544 5.81988C39.9144 5.75988 41.0844 5.81988 42.2544 5.81988C42.6915 5.83757 43.1054 6.02115 43.4119 6.33325C43.7185 6.64536 43.8946 7.06253 43.9044 7.49988C43.9032 7.72174 43.8574 7.94108 43.7695 8.1448C43.6816 8.34852 43.5536 8.53243 43.393 8.68553C43.2325 8.83863 43.0427 8.95778 42.835 9.03584C42.6273 9.11391 42.406 9.14929 42.1844 9.13988L40.4844 9.12988Z" fill="#66C206"/>
<path d="M50.4237 12.3099H52.2137C52.5974 12.3193 52.9636 12.4726 53.2396 12.7393C53.5156 13.006 53.6813 13.3668 53.7037 13.7499C53.7502 13.952 53.7549 14.1614 53.7175 14.3653C53.6801 14.5692 53.6013 14.7632 53.4861 14.9356C53.3709 15.1079 53.2217 15.2549 53.0476 15.3674C52.8735 15.4799 52.6782 15.5557 52.4737 15.5899C51.0598 15.7749 49.6277 15.7749 48.2137 15.5899C47.2137 15.4599 47.0437 14.6699 47.0937 13.7899C47.0828 13.4209 47.217 13.0624 47.4676 12.7913C47.7181 12.5201 48.065 12.3581 48.4337 12.3399C49.0998 12.2994 49.7677 12.2994 50.4337 12.3399L50.4237 12.3099Z" fill="#66C206"/>
<path d="M50.3342 9.13007H48.8442C48.6052 9.16195 48.3619 9.13794 48.1337 9.05994C47.9054 8.98194 47.6984 8.85208 47.5288 8.68055C47.3592 8.50903 47.2317 8.30051 47.1563 8.07139C47.0809 7.84227 47.0597 7.59879 47.0942 7.36007C47.0643 7.15634 47.08 6.94851 47.1402 6.75159C47.2005 6.55467 47.3037 6.37359 47.4424 6.22144C47.5812 6.06929 47.752 5.94987 47.9426 5.87181C48.1331 5.79375 48.3386 5.759 48.5442 5.77007C49.7042 5.71007 50.8642 5.77007 52.0342 5.77007C52.2669 5.76247 52.4985 5.80543 52.713 5.89598C52.9275 5.98653 53.1198 6.12252 53.2766 6.29458C53.4335 6.46664 53.5512 6.67066 53.6215 6.89259C53.6919 7.11452 53.7133 7.34907 53.6842 7.58007C53.669 7.80089 53.6103 8.01653 53.5115 8.2146C53.4127 8.41266 53.2758 8.58925 53.1085 8.73421C52.9412 8.87918 52.747 8.98966 52.5369 9.05931C52.3268 9.12896 52.105 9.15641 51.8842 9.14008L50.3342 9.13007Z" fill="#66C206"/>
</g>
<defs>
<clipPath id="clip0_87_574">
<rect width="79" height="79" fill="white" transform="translate(0.543945 0.5)"/>
</clipPath>
</defs>
</svg>
