<svg width="80" height="80" viewBox="0 0 80 80" fill="none" xmlns="http://www.w3.org/2000/svg">
<g clip-path="url(#clip0_87_532)">
<path d="M5.23895 79.5H0.418945C0.418945 53.4133 0.418945 27.3333 0.418945 1.26C0.418945 0.6 0.608945 0.5 1.19895 0.5C27.0056 0.5 52.8156 0.5 78.6289 0.5C79.4189 0.5 79.4189 0.73 79.4189 1.35C79.4189 22.2633 79.4189 43.1767 79.4189 64.09C79.1915 63.7954 78.9031 63.5535 78.5734 63.3809C78.2437 63.2083 77.8806 63.1091 77.5089 63.09C76.0289 63.14 76.1289 63.38 76.1289 61.72C76.1289 45.83 76.1289 29.94 76.1289 14.05C76.1289 11.59 73.9389 8.84 71.1289 9.05C70.2989 9.12 69.4589 9.05 68.6289 9.05C67.7989 9.05 66.7289 8.69 66.2289 9.21C65.7289 9.73 66.229 10.78 66.1489 11.6C66.089 12.22 66.3989 12.32 66.9189 12.3C68.1189 12.3 69.3189 12.3 70.5189 12.3C70.8192 12.2466 71.128 12.2667 71.4188 12.3586C71.7096 12.4504 71.9739 12.6113 72.1891 12.8275C72.4043 13.0436 72.5639 13.3086 72.6545 13.5999C72.745 13.8911 72.7637 14.2 72.7089 14.5C72.6689 30.3867 72.6689 46.2767 72.7089 62.17C72.7089 62.98 72.4589 63.17 71.7089 63.17C66.1756 63.17 60.6456 63.17 55.1189 63.17C52.9989 63.17 52.9689 62.67 52.9889 65.33C52.9889 66.59 52.9889 66.63 54.2789 66.63C61.2789 66.63 68.1989 66.63 75.1589 66.63C75.8789 66.63 76.1589 66.78 76.1589 67.56C76.0989 69.19 76.1589 70.83 76.1589 72.46C76.2076 72.9786 76.1406 73.5015 75.9628 73.991C75.7849 74.4806 75.5006 74.9246 75.1304 75.2909C74.7602 75.6573 74.3133 75.937 73.8219 76.1097C73.3306 76.2825 72.807 76.3441 72.2889 76.29C59.5289 76.21 46.7689 76.29 34.0089 76.29C25.1756 76.29 16.3489 76.29 7.52895 76.29C7.04602 76.353 6.55506 76.3029 6.09487 76.1435C5.63468 75.9841 5.21787 75.7198 4.8774 75.3716C4.53693 75.0233 4.28213 74.6007 4.13314 74.137C3.98415 73.6733 3.94505 73.1814 4.01895 72.7C4.01895 71.04 4.01895 69.37 4.01895 67.7C4.01895 66.8 4.20895 66.52 5.15895 66.52C11.5889 66.52 18.0189 66.52 24.4389 66.52C26.9689 66.52 26.9389 66.52 26.9389 64.02C26.9389 63.23 26.6689 63.02 25.9389 63.02C20.1089 63.02 14.2789 63.02 8.44895 63.02C7.44895 63.02 7.24895 62.8 7.24895 61.83C7.24895 46.2433 7.24895 30.6533 7.24895 15.06C7.22405 14.6938 7.22405 14.3262 7.24895 13.96C7.26231 13.65 7.36336 13.3501 7.54038 13.0952C7.71739 12.8403 7.96309 12.6408 8.24895 12.52C9.30894 12.01 10.3989 12.28 11.4789 12.26C13.9089 12.26 13.8889 12.26 13.8689 9.85C13.8689 9.2 13.6789 8.97 13.0289 8.98C11.4289 8.98 9.82895 8.98 8.22895 8.98C7.80087 8.96951 7.37525 9.04782 6.97895 9.21C5.96764 9.6385 5.11655 10.3739 4.54593 11.3124C3.97531 12.2509 3.71401 13.345 3.79895 14.44C3.79895 30.2333 3.79895 46.02 3.79895 61.8C3.79895 62.56 3.79895 63.07 2.79895 63C1.17895 62.88 0.798945 63.61 0.798945 65C0.858945 67.66 0.798945 70.33 0.798945 73C0.742621 73.7748 0.840924 74.5531 1.08814 75.2896C1.33535 76.0261 1.72654 76.7061 2.23895 77.29C2.16895 77.47 2.23895 77.51 2.40895 77.46L2.60895 77.71C2.60895 77.89 2.60895 77.92 2.80895 77.86L3.04895 78.07C3.04895 78.45 3.33895 78.44 3.61895 78.43C3.99895 79.05 4.76895 79 5.23895 79.5ZM40.0489 14.08C46.2089 14.08 52.3689 14.08 58.5289 14.08C59.3289 14.08 59.6389 14.29 59.6389 15.15C59.6389 20.61 59.6389 26.07 59.6389 31.54C59.6389 32.6 59.3189 33.33 58.2089 33.54C57.9089 33.6 57.7889 33.77 57.8689 34.03C58.0367 34.8116 58.0806 35.6148 57.9989 36.41C57.9989 37.04 58.3289 37.18 58.8189 37.05C61.1589 36.43 63.0089 34.9 63.0289 32.13C63.0289 24.93 63.0289 17.74 63.0289 10.55C63.0263 9.64769 62.7623 8.76547 62.2689 8.01C61.0589 6.11 59.1489 5.64 57.1089 5.62C51.9089 5.57 46.7189 5.62 41.5189 5.62C41.2112 5.65024 40.9006 5.60607 40.6135 5.49121C40.3263 5.37635 40.071 5.19416 39.8689 4.96C38.8689 3.82 37.7289 2.77 36.6389 1.7C36.4455 1.45291 36.2002 1.25138 35.9202 1.10967C35.6403 0.967965 35.3326 0.889556 35.0189 0.88C30.5589 0.88 26.0989 0.88 21.6289 0.88C20.4312 0.958125 19.3031 1.47052 18.4562 2.32108C17.6094 3.17164 17.1019 4.30194 17.0289 5.5C17.0289 14.3933 17.0289 23.2867 17.0289 32.18C17.0279 32.9488 17.2151 33.7062 17.5742 34.386C17.9333 35.0659 18.4534 35.6474 19.0889 36.08C19.7605 36.6567 20.6242 36.9601 21.5089 36.93C22.3689 36.8 21.9689 35.69 22.1089 35.03C22.1989 34.58 22.5889 33.7 21.8689 33.56C20.5089 33.34 20.4189 32.41 20.4189 31.4C20.4189 26.04 20.4189 20.68 20.4189 15.32C20.4189 14.32 20.7189 14.06 21.6789 14.07C27.7889 14.1 33.9189 14.08 40.0489 14.08ZM39.9889 59.9C49.1089 59.9 58.2389 59.9 67.3689 59.9C68.9789 59.9 69.7089 59.35 69.7189 57.45C69.7189 44.29 69.7189 31.13 69.7189 17.97C69.6956 17.3807 69.5527 16.8023 69.2989 16.27C69.0289 15.65 67.3989 15.27 66.5789 15.58C65.7589 15.89 66.2389 16.52 66.2289 16.99C66.2289 29.75 66.2289 42.5067 66.2289 55.26C66.2289 56.26 66.0089 56.54 64.9789 56.54C48.3456 56.54 31.7189 56.54 15.0989 56.54C13.8189 56.54 13.8189 56.54 13.8189 55.19V17.03C13.8189 16.73 13.8189 16.43 13.8189 16.13C13.8246 16.0141 13.7898 15.8998 13.7205 15.8068C13.6512 15.7137 13.5516 15.6477 13.4389 15.62C13.1061 15.4735 12.7415 15.4143 12.3794 15.4479C12.0174 15.4814 11.6698 15.6067 11.3696 15.8119C11.0694 16.017 10.8264 16.2953 10.6636 16.6204C10.5008 16.9455 10.4234 17.3067 10.4389 17.67V57.95C10.4389 59.35 11.0089 59.9 12.4389 59.9H39.9889ZM31.7789 24.9C31.5415 24.8721 31.3008 24.9041 31.079 24.9932C30.8571 25.0823 30.6611 25.2256 30.5089 25.41C29.8589 26.04 29.2189 26.69 28.5889 27.34C28.2229 27.6576 27.9847 28.0973 27.9184 28.5773C27.8522 29.0574 27.9626 29.5452 28.2289 29.95C28.5289 30.52 28.8889 31.07 29.1389 31.67C29.3889 32.27 29.4689 32.67 28.6789 32.9C27.8889 33.13 27.3889 33.33 26.7389 33.54C25.8489 33.82 25.2189 34.29 25.2489 35.33C25.2789 36.37 25.2489 37.2 25.2489 38.13C25.2489 39.6 25.4089 39.82 26.8489 40.36C27.3929 40.5996 27.9546 40.7968 28.5289 40.95C29.5289 41.16 29.3789 41.68 29.0389 42.33C28.6989 42.98 28.4489 43.42 28.1689 43.98C27.9317 44.3809 27.8419 44.852 27.9149 45.3121C27.9879 45.7721 28.2192 46.1923 28.5689 46.5C29.2189 47.16 29.8389 47.84 30.5689 48.5C30.8125 48.8007 31.1508 49.0099 31.5286 49.0935C31.9064 49.177 32.3013 49.13 32.6489 48.96C33.3589 48.6 34.0889 48.25 34.8089 47.96C35.3689 47.7 35.8089 47.54 36.0389 48.42C36.2415 49.1842 36.4988 49.9328 36.8089 50.66C36.9198 50.9915 37.1387 51.2762 37.4306 51.4684C37.7226 51.6606 38.0706 51.7492 38.4189 51.72C39.3489 51.72 40.2789 51.72 41.2089 51.72C42.7489 51.72 43.0089 51.49 43.4589 49.99C43.5889 49.53 43.7489 49.07 43.8989 48.61C44.2589 47.49 44.3889 47.51 45.5489 48.03C46.0789 48.26 46.5489 48.55 47.0889 48.79C47.5075 49.0429 48.0041 49.1337 48.485 49.0452C48.9659 48.9568 49.3978 48.6952 49.6989 48.31L50.8789 47.16C52.3789 45.66 52.3989 45.22 51.4689 43.28C50.5389 41.34 50.0989 41.39 52.5689 40.61C54.2989 40.06 54.9689 39.98 54.8389 37.55C54.8389 36.85 54.8389 36.15 54.8389 35.45C54.8652 35.2179 54.8451 34.9828 54.7796 34.7586C54.7141 34.5344 54.6047 34.3254 54.4576 34.1439C54.3105 33.9624 54.1288 33.812 53.923 33.7014C53.7172 33.5909 53.4915 33.5224 53.2589 33.5C52.6789 33.38 52.1689 33.09 51.5789 32.99C50.9889 32.89 50.5789 32.38 50.9589 31.62C51.2856 31.04 51.5856 30.45 51.8589 29.85C52.0794 29.4784 52.1659 29.0425 52.1041 28.6149C52.0422 28.1873 51.8357 27.7938 51.5189 27.5C50.8689 26.88 50.2389 26.25 49.6089 25.61C49.301 25.2234 48.8609 24.9646 48.3734 24.8833C47.8859 24.8021 47.3856 24.9042 46.9689 25.17C46.2889 25.5 45.6189 25.84 44.9689 26.17C44.5989 26.35 44.3589 26.37 44.1989 25.82C43.9589 25.05 43.6789 24.29 43.4189 23.53C43.3312 23.0806 43.0756 22.6816 42.704 22.4141C42.3325 22.1465 41.8729 22.0306 41.4189 22.09C40.4189 22.16 39.3489 22.09 38.3189 22.09C37.9749 22.0798 37.6368 22.1815 37.3555 22.3799C37.0742 22.5782 36.8649 22.8625 36.7589 23.19C36.4889 23.87 36.2989 24.57 36.0489 25.26C35.6489 26.35 35.4589 26.38 34.3989 25.89C33.5989 25.5 32.8689 24.8 31.7789 24.89V24.9ZM39.9589 63.1C36.9589 63.1 33.9589 63.1 30.9589 63.1C30.2789 63.1 29.9589 63.28 30.0289 64C30.0989 64.72 30.0289 65.73 30.0289 66.59C30.0868 67.4073 30.437 68.1764 31.0154 68.7567C31.5938 69.337 32.3618 69.6896 33.1789 69.75C37.7089 69.69 42.2289 69.75 46.7489 69.75C47.4322 69.7494 48.0963 69.5238 48.6385 69.1081C49.1807 68.6924 49.571 68.1097 49.7489 67.45C49.9398 66.4048 50.007 65.3409 49.9489 64.28C49.9489 63.46 49.7189 63.09 48.8089 63.11C45.8789 63.13 42.9189 63.1 39.9589 63.1Z" fill="#FBFCFC"/>
<path d="M2.18882 77.37C1.67641 76.7861 1.28522 76.1061 1.03801 75.3697C0.790799 74.6332 0.692496 73.8549 0.748821 73.08C0.748821 70.42 0.808821 67.75 0.748821 65.08C0.748821 63.72 1.13882 62.99 2.74882 63.08C3.74882 63.15 3.74882 62.64 3.74882 61.88C3.74882 46.0934 3.74882 30.3067 3.74882 14.52C3.67562 13.4269 3.94688 12.3383 4.52447 11.4074C5.10205 10.4764 5.95691 9.74994 6.96882 9.33005C7.36513 9.16787 7.79074 9.08956 8.21882 9.10005C9.81882 9.10005 11.4188 9.10005 13.0188 9.10005C13.6688 9.10005 13.8588 9.32005 13.8588 9.97005C13.8588 12.37 13.8588 12.33 11.4688 12.38C10.3888 12.38 9.29882 12.13 8.23882 12.64C7.95297 12.7609 7.70727 12.9603 7.53025 13.2152C7.35324 13.4701 7.25218 13.77 7.23882 14.08C7.21393 14.4463 7.21393 14.8138 7.23882 15.18C7.23882 30.7734 7.23882 46.3634 7.23882 61.95C7.23882 62.95 7.47882 63.15 8.43882 63.14C14.2688 63.14 20.0988 63.14 25.9288 63.14C26.6888 63.14 26.9288 63.33 26.9288 64.14C26.9288 66.64 26.9288 66.64 24.4288 66.64C18.0088 66.64 11.5788 66.64 5.14882 66.64C4.19882 66.64 3.96882 66.92 4.00882 67.82C4.07882 69.48 4.00882 71.15 4.00882 72.82C3.95851 73.2859 4.01307 73.757 4.16851 74.199C4.32395 74.641 4.57633 75.0426 4.90714 75.3743C5.23795 75.7061 5.63881 75.9596 6.08034 76.1164C6.52187 76.2731 6.99287 76.329 7.45882 76.28C16.2922 76.28 25.1188 76.28 33.9388 76.28C46.6988 76.28 59.4588 76.28 72.2188 76.28C72.7369 76.3341 73.2604 76.2725 73.7518 76.0998C74.2432 75.927 74.6901 75.6474 75.0603 75.281C75.4305 74.9146 75.7148 74.4706 75.8926 73.9811C76.0705 73.4915 76.1375 72.9686 76.0888 72.45C76.0888 70.82 76.0388 69.18 76.0888 67.55C76.0888 66.7701 75.8288 66.62 75.0888 66.62C68.0888 66.62 61.1688 66.62 54.2088 66.62C52.9588 66.62 52.9288 66.62 52.9188 65.32C52.9188 62.66 52.9188 63.17 55.0488 63.16C60.5822 63.16 66.1122 63.16 71.6388 63.16C72.4088 63.16 72.6388 62.98 72.6388 62.16C72.6388 46.2734 72.6388 30.3834 72.6388 14.49C72.6746 14.2044 72.6446 13.9144 72.5512 13.6421C72.4578 13.3699 72.3034 13.1225 72.0999 12.919C71.8963 12.7155 71.649 12.5611 71.3767 12.4677C71.1045 12.3743 70.8144 12.3443 70.5288 12.38C69.3288 12.38 68.1288 12.38 66.9288 12.38C66.4088 12.38 66.0988 12.3 66.1588 11.68C66.2388 10.86 65.7488 9.80005 66.2388 9.29005C66.7288 8.78005 67.8188 9.16005 68.6388 9.13005C69.4588 9.10005 70.3088 9.18005 71.1388 9.13005C73.9088 8.88005 76.1388 11.63 76.1388 14.13C76.0788 30.02 76.1388 45.91 76.1388 61.8C76.1388 63.46 76.0388 63.22 77.5188 63.17C77.8905 63.1891 78.2536 63.2884 78.5833 63.461C78.913 63.6336 79.2014 63.8755 79.4288 64.17V75.37C79.0888 75.32 78.9688 75.53 78.8588 75.81C78.6597 76.2489 78.4185 76.6675 78.1388 77.06C77.2532 78.1421 76.1075 78.9817 74.8088 79.5H5.23882C4.76882 79.01 3.99882 79.06 3.56882 78.5L2.99882 78.14L2.75882 77.93C2.75882 77.78 2.75882 77.72 2.55882 77.78L2.35882 77.5C2.41882 77.41 2.32882 77.3501 2.18882 77.37Z" fill="#4B4B4B"/>
<path d="M74.8086 79.5001C76.1077 78.9591 77.2471 78.0951 78.1186 76.9901C78.3983 76.5976 78.6394 76.179 78.8386 75.7401C78.9486 75.4601 79.0686 75.2501 79.4086 75.3001C79.4086 76.5301 79.4086 77.7601 79.4086 79.0001C79.4086 79.4301 79.3286 79.5201 78.8986 79.5101C77.5386 79.5001 76.1686 79.5001 74.8086 79.5001Z" fill="#FBFCFC"/>
<path d="M40.0488 14.0799C33.9188 14.0799 27.7888 14.0799 21.6588 14.0799C20.6588 14.0799 20.3888 14.3599 20.3988 15.3299C20.3988 20.6899 20.3988 26.0499 20.3988 31.4099C20.3988 32.4099 20.4788 33.3499 21.8488 33.6099C22.5688 33.7499 22.1788 34.6099 22.0888 35.0799C21.9488 35.7399 22.3488 36.8499 21.4888 36.9799C20.6041 37.01 19.7403 36.7066 19.0688 36.1299C18.4332 35.6973 17.9132 35.1158 17.5541 34.4359C17.195 33.7561 17.0078 32.9987 17.0088 32.2299C17.0088 23.3299 17.0088 14.4366 17.0088 5.5499C17.0751 4.34331 17.5823 3.20311 18.4341 2.34587C19.2858 1.48863 20.4227 0.974065 21.6288 0.899902C26.0988 0.899902 30.5588 0.899902 35.0188 0.899902C35.3308 0.907046 35.6375 0.982357 35.9174 1.12055C36.1972 1.25875 36.4434 1.45649 36.6388 1.6999C37.7288 2.7699 38.8488 3.8199 39.8688 4.9599C40.0708 5.19407 40.3262 5.37625 40.6133 5.49111C40.9005 5.60597 41.211 5.65014 41.5188 5.6199C46.7188 5.6199 51.9088 5.6199 57.1088 5.6199C59.1088 5.6199 61.1088 6.1099 62.2688 8.0099C62.753 8.75108 63.0166 9.61464 63.0288 10.4999C63.0288 17.6899 63.0288 24.8799 63.0288 32.0799C63.0288 34.8499 61.1588 36.3799 58.8188 36.9999C58.3288 37.1299 57.9988 36.9999 57.9988 36.3599C58.0804 35.5647 58.0365 34.7615 57.8688 33.9799C57.7888 33.7199 57.8688 33.5499 58.2088 33.4899C59.3188 33.2799 59.6388 32.5499 59.6388 31.4899C59.6388 26.0199 59.6388 20.5599 59.6388 15.0999C59.6388 14.2399 59.3288 14.0299 58.5288 14.0299C52.4188 14.0899 46.2088 14.0799 40.0488 14.0799Z" fill="#66C206"/>
<path d="M39.9889 59.9H12.4189C11.0089 59.9 10.4189 59.35 10.4189 57.95V17.67C10.4034 17.3067 10.4807 16.9455 10.6436 16.6204C10.8064 16.2952 11.0494 16.017 11.3496 15.8118C11.6498 15.6067 11.9974 15.4814 12.3594 15.4479C12.7215 15.4143 13.0861 15.4735 13.4189 15.62C13.5316 15.6477 13.6312 15.7137 13.7005 15.8068C13.7698 15.8998 13.8046 16.0141 13.7989 16.13C13.7989 16.43 13.7989 16.73 13.7989 17.03V55.2C13.7989 56.54 13.7989 56.55 15.0789 56.55C31.7123 56.55 48.3389 56.55 64.9589 56.55C65.9589 56.55 66.2089 56.27 66.2089 55.27C66.2089 42.5233 66.2089 29.7667 66.2089 17C66.2089 16.53 65.8689 15.87 66.5589 15.59C67.2489 15.31 69.0089 15.66 69.2789 16.28C69.5327 16.8123 69.6756 17.3907 69.6989 17.98C69.6989 31.14 69.6989 44.3 69.6989 57.46C69.6989 59.36 68.9589 59.92 67.3489 59.91C58.2389 59.86 49.1089 59.9 39.9889 59.9Z" fill="#4B4B4B"/>
<path d="M31.779 24.89C32.869 24.8 33.599 25.51 34.439 25.89C35.499 26.38 35.689 26.35 36.089 25.26C36.339 24.57 36.529 23.87 36.799 23.19C36.9049 22.8625 37.1142 22.5783 37.3955 22.3799C37.6769 22.1815 38.0149 22.0798 38.359 22.09C39.359 22.09 40.429 22.14 41.459 22.09C41.9023 22.0404 42.3483 22.1572 42.7105 22.4177C43.0726 22.6782 43.3251 23.0639 43.419 23.5C43.679 24.26 43.959 25.02 44.199 25.79C44.359 26.34 44.599 26.32 44.969 26.14C45.649 25.83 46.319 25.49 46.969 25.14C47.3856 24.8742 47.8859 24.7721 48.3734 24.8534C48.8609 24.9346 49.3011 25.1935 49.609 25.58C50.239 26.22 50.869 26.85 51.519 27.47C51.8406 27.7651 52.0502 28.1623 52.1121 28.5943C52.1741 29.0263 52.0847 29.4665 51.859 29.84C51.5923 30.44 51.2923 31.03 50.959 31.61C50.529 32.37 50.849 32.86 51.579 32.98C52.309 33.1 52.679 33.37 53.259 33.49C53.4964 33.5132 53.7266 33.5844 53.9357 33.6993C54.1447 33.8142 54.3282 33.9703 54.4751 34.1583C54.6219 34.3463 54.729 34.5622 54.7898 34.7928C54.8507 35.0235 54.864 35.2641 54.829 35.5C54.829 36.2 54.829 36.9 54.829 37.6C54.959 40.03 54.289 40.11 52.559 40.66C50.089 41.44 50.489 41.32 51.459 43.33C52.429 45.34 52.369 45.71 50.869 47.21L49.689 48.36C49.3878 48.7453 48.956 49.0068 48.4751 49.0953C47.9941 49.1837 47.4975 49.0929 47.079 48.84C46.559 48.6 46.079 48.31 45.539 48.08C44.419 47.5 44.259 47.5 43.899 48.61C43.749 49.07 43.589 49.53 43.459 49.99C43.009 51.49 42.749 51.71 41.209 51.72C40.279 51.72 39.349 51.72 38.419 51.72C38.0525 51.7538 37.6859 51.6569 37.3839 51.4464C37.082 51.236 36.8642 50.9256 36.769 50.57C36.4589 49.8428 36.2015 49.0942 35.999 48.33C35.809 47.45 35.329 47.61 34.769 47.87C34.049 48.2 33.319 48.55 32.609 48.87C32.2709 49.0503 31.8822 49.1118 31.505 49.0447C31.1278 48.9776 30.7841 48.7858 30.529 48.5C29.839 47.88 29.219 47.2 28.529 46.5C28.1793 46.1923 27.948 45.7722 27.8749 45.3121C27.8019 44.8521 27.8918 44.3809 28.129 43.98C28.409 43.42 28.709 42.88 28.999 42.33C29.289 41.78 29.459 41.16 28.489 40.95C27.9146 40.7969 27.353 40.5996 26.809 40.36C25.369 39.82 25.209 39.6 25.209 38.13C25.209 37.2 25.209 36.27 25.209 35.33C25.209 34.39 25.809 33.82 26.699 33.54C27.349 33.33 27.979 33.06 28.639 32.9C29.299 32.74 29.299 32.16 29.099 31.67C28.899 31.18 28.489 30.52 28.189 29.95C27.9226 29.5452 27.8123 29.0574 27.8785 28.5774C27.9447 28.0973 28.183 27.6576 28.549 27.34C29.179 26.69 29.819 26.04 30.469 25.41C30.6238 25.2176 30.8259 25.0686 31.0555 24.9774C31.285 24.8863 31.5343 24.8562 31.779 24.89ZM51.549 36.89C51.549 36.67 51.359 36.57 51.169 36.5C50.589 36.29 50.009 36.09 49.439 35.86C48.869 35.63 48.219 35.48 47.909 34.86C46.779 32.41 46.779 32.41 47.909 29.95C47.909 29.86 48.039 29.79 48.069 29.7C48.1399 29.586 48.1774 29.4543 48.1774 29.32C48.1774 29.1857 48.1399 29.0541 48.069 28.94C47.839 28.67 47.519 28.75 47.239 28.88C46.639 29.16 46.069 29.48 45.459 29.73C44.709 29.8717 43.9345 29.8028 43.2214 29.5309C42.5082 29.2591 41.8843 28.795 41.419 28.19C41.0952 27.5152 40.8438 26.8079 40.669 26.08C40.6379 25.9342 40.5591 25.8029 40.445 25.7069C40.3309 25.6109 40.188 25.5557 40.039 25.55C39.739 25.55 39.589 25.74 39.509 26.04C39.429 26.34 39.219 26.92 39.079 27.36C38.91 27.8426 38.642 28.2846 38.2922 28.6575C37.9425 29.0305 37.5186 29.3263 37.0479 29.5259C36.5771 29.7255 36.0698 29.8245 35.5586 29.8166C35.0473 29.8087 34.5434 29.6941 34.079 29.48C33.729 29.3 33.389 29.1 33.079 28.93C32.769 28.76 32.499 28.6 32.169 28.93C31.839 29.26 31.959 29.5 32.169 29.85C32.5205 30.4268 32.7992 31.0448 32.999 31.69C33.1831 32.594 33.0266 33.5341 32.5596 34.3297C32.0926 35.1252 31.348 35.7201 30.469 36C30.1187 36.1719 29.7445 36.2898 29.359 36.35C29.1938 36.3637 29.0388 36.4355 28.9216 36.5527C28.8044 36.6699 28.7326 36.8249 28.719 36.99C28.669 37.33 28.929 37.5 29.279 37.54C29.7195 37.6607 30.1534 37.8043 30.579 37.97C31.129 38.1 31.839 38.27 32.099 38.76C32.879 40.27 33.649 41.86 32.499 43.54C32.279 43.85 32.289 44.25 32.039 44.54C31.789 44.83 32.039 44.88 32.139 45.06C32.239 45.24 32.399 45.37 32.679 45.2C32.959 45.03 33.419 44.7 33.839 44.5C34.3249 44.2493 34.86 44.1088 35.4064 44.0884C35.9528 44.068 36.4969 44.1684 37.0001 44.3822C37.5033 44.5961 37.9531 44.9183 38.3176 45.3258C38.6821 45.7333 38.9523 46.2162 39.109 46.74C39.299 47.34 39.169 48.42 40.009 48.4C40.849 48.38 40.769 47.29 41.009 46.67C41.3098 45.8109 41.9037 45.0853 42.6865 44.6208C43.4693 44.1562 44.3908 43.9825 45.289 44.13C45.869 44.27 46.379 44.7 46.959 44.88C47.269 44.98 47.559 45.49 47.959 45.03C48.359 44.57 48.089 44.28 47.909 43.89C47.419 42.71 46.639 41.65 47.419 40.2C48.019 39.02 48.589 38.03 50.019 37.84C50.4046 37.7547 50.7776 37.6203 51.129 37.44C51.2317 37.3904 51.3224 37.3191 51.3949 37.2311C51.4674 37.143 51.5199 37.0403 51.549 36.93V36.89Z" fill="#4B4B4B"/>
<path d="M39.9586 63.1001C42.9586 63.1001 45.8786 63.1001 48.8386 63.1001C49.7486 63.1001 50.0186 63.4501 49.9786 64.2701C50.0366 65.331 49.9695 66.395 49.7786 67.4401C49.6006 68.0998 49.2104 68.6825 48.6682 69.0982C48.1259 69.5139 47.4619 69.7395 46.7786 69.7401C42.2586 69.7401 37.7786 69.7401 33.2086 69.7401C32.3915 69.6797 31.6235 69.3271 31.045 68.7468C30.4666 68.1665 30.1164 67.3974 30.0586 66.5801C30.0586 65.7201 30.0586 64.8501 30.0586 63.9901C30.0586 63.1301 30.3086 63.0801 30.9886 63.0901C33.9686 63.1201 36.9586 63.1001 39.9586 63.1001Z" fill="#66C206"/>
<path d="M2.99902 78.1499L3.56902 78.5099C3.28902 78.4999 3.02902 78.4999 2.99902 78.1499Z" fill="#66C206"/>
<path d="M2.18851 77.3701C2.32851 77.3701 2.37851 77.3701 2.35851 77.5401C2.33851 77.7101 2.11851 77.5501 2.18851 77.3701Z" fill="#66C206"/>
<path d="M2.55847 77.7901C2.70847 77.7301 2.76847 77.7901 2.75847 77.9401C2.74847 78.0901 2.52847 77.9701 2.55847 77.7901Z" fill="#66C206"/>
<path d="M51.5491 36.9299C51.5168 37.0431 51.4597 37.1476 51.3818 37.2358C51.304 37.324 51.2074 37.3938 51.0991 37.4399C50.7478 37.6201 50.3747 37.7546 49.9891 37.8399C48.5591 38.0299 47.9891 39.0199 47.3891 40.1999C46.6391 41.6499 47.3891 42.7099 47.9291 43.8699C48.1091 44.2599 48.3891 44.5799 47.9791 45.0099C47.5691 45.4399 47.2491 45.0099 46.9791 44.8599C46.3991 44.6799 45.8891 44.2499 45.3091 44.1099C44.4109 43.9623 43.4895 44.1361 42.7067 44.6006C41.9239 45.0652 41.3299 45.7908 41.0291 46.6499C40.8091 47.2699 40.8891 48.3699 40.0291 48.3799C39.1691 48.3899 39.3191 47.3199 39.1291 46.7199C38.9709 46.1951 38.6986 45.7117 38.3317 45.3044C37.9649 44.8971 37.5125 44.5759 37.0071 44.3638C36.5016 44.1517 35.9555 44.0539 35.4079 44.0774C34.8602 44.1009 34.3245 44.2452 33.8391 44.4999C33.3991 44.7199 32.9291 44.8899 32.5091 45.1399C32.0891 45.3899 32.1391 45.2299 31.9691 44.9999C31.7991 44.7699 31.5691 44.7699 31.8691 44.4799C32.1691 44.1899 32.1091 43.8399 32.3291 43.4799C33.4791 41.7999 32.7091 40.2099 31.9291 38.6999C31.6691 38.2099 30.9291 38.0399 30.4091 37.9099C29.9836 37.7441 29.5496 37.6006 29.1091 37.4799C28.7591 37.4799 28.4991 37.2699 28.5491 36.9299C28.5628 36.7647 28.6346 36.6097 28.7518 36.4926C28.869 36.3754 29.024 36.3035 29.1891 36.2899C29.5746 36.2297 29.9488 36.1117 30.2991 35.9399C31.1782 35.66 31.9227 35.0651 32.3897 34.2695C32.8567 33.474 33.0132 32.5339 32.8291 31.6299C32.6294 30.9847 32.3506 30.3667 31.9991 29.7899C31.8191 29.4399 31.6891 29.1799 31.9991 28.8699C32.3091 28.5599 32.6191 28.7699 32.9091 28.8699C33.1991 28.9699 33.6091 29.2399 33.9091 29.4199C34.3735 29.6339 34.8775 29.7486 35.3887 29.7565C35.9 29.7644 36.4073 29.6653 36.878 29.4657C37.3488 29.2661 37.7726 28.9704 38.1224 28.5974C38.4722 28.2244 38.7401 27.7825 38.9091 27.2999C39.0491 26.8599 39.2291 26.4299 39.3391 25.9799C39.4491 25.5299 39.5691 25.4599 39.8691 25.4899C40.0182 25.4955 40.161 25.5507 40.2751 25.6467C40.3893 25.7427 40.4681 25.8741 40.4991 26.0199C40.7242 26.7752 41.0328 27.503 41.4191 28.1899C41.8914 28.8051 42.5274 29.2749 43.2543 29.5455C43.9811 29.8161 44.7695 29.8765 45.5291 29.7199C46.1391 29.4699 46.7091 29.1499 47.3091 28.8699C47.5891 28.7399 47.9091 28.6599 48.1391 28.9299C48.21 29.044 48.2476 29.1756 48.2476 29.3099C48.2476 29.4442 48.21 29.5758 48.1391 29.6899C48.1391 29.7799 48.0191 29.8499 47.9791 29.9399C46.8091 32.3999 46.8091 32.3999 47.9791 34.8499C48.2891 35.5199 48.9291 35.6599 49.5091 35.8499C50.0891 36.0399 50.6591 36.2799 51.2391 36.4899C51.3591 36.6099 51.5191 36.7099 51.5491 36.9299ZM40.0191 41.9299C41.3332 41.93 42.5945 41.4129 43.5302 40.4903C44.4658 39.5677 45.0007 38.3138 45.0191 36.9999C45.096 36.3014 45.0248 35.5945 44.81 34.9253C44.5953 34.2562 44.242 33.6398 43.773 33.1164C43.3041 32.593 42.73 32.1744 42.0884 31.8878C41.4467 31.6011 40.7519 31.453 40.0491 31.453C39.3464 31.453 38.6515 31.6011 38.0099 31.8878C37.3682 32.1744 36.7942 32.593 36.3253 33.1164C35.8563 33.6398 35.5029 34.2562 35.2882 34.9253C35.0735 35.5945 35.0023 36.3014 35.0791 36.9999C35.0923 38.3005 35.6189 39.5431 36.5442 40.4572C37.4695 41.3712 38.7185 41.8826 40.0191 41.8799V41.9299Z" fill="#FBFCFC"/>
<path d="M40.0188 41.8799C39.3646 41.8813 38.7167 41.7525 38.1128 41.5009C37.5089 41.2494 36.9611 40.8802 36.5013 40.4149C36.0415 39.9495 35.679 39.3973 35.4347 38.7904C35.1905 38.1835 35.0695 37.534 35.0788 36.8799C35.002 36.1814 35.0732 35.4745 35.2879 34.8053C35.5026 34.1362 35.856 33.5198 36.325 32.9964C36.7939 32.473 37.3679 32.0544 38.0096 31.7678C38.6512 31.4811 39.3461 31.333 40.0488 31.333C40.7516 31.333 41.4464 31.4811 42.0881 31.7678C42.7297 32.0544 43.3037 32.473 43.7727 32.9964C44.2417 33.5198 44.595 34.1362 44.8097 34.8053C45.0244 35.4745 45.0957 36.1814 45.0188 36.8799C45.0188 38.206 44.492 39.4778 43.5544 40.4154C42.6167 41.3531 41.3449 41.8799 40.0188 41.8799ZM40.0188 35.4799C39.8171 35.4635 39.6142 35.4886 39.4226 35.5537C39.231 35.6188 39.0547 35.7225 38.9048 35.8584C38.7548 35.9943 38.6343 36.1595 38.5507 36.3438C38.4672 36.5281 38.4223 36.7276 38.4188 36.9299C38.4574 37.3558 38.6416 37.7554 38.9403 38.0614C39.239 38.3674 39.634 38.5611 40.0588 38.6099C40.4556 38.5386 40.8157 38.3325 41.078 38.0264C41.3404 37.7203 41.4891 37.333 41.4988 36.9299C41.5296 36.7306 41.512 36.5269 41.4477 36.3358C41.3833 36.1447 41.2741 35.9718 41.1291 35.8317C40.9841 35.6916 40.8075 35.5884 40.6144 35.5306C40.4212 35.4729 40.2169 35.4623 40.0188 35.4999V35.4799Z" fill="#4B4B4B"/>
<path d="M40.0189 35.5C40.219 35.4615 40.4253 35.4721 40.6204 35.5308C40.8154 35.5896 40.9933 35.6947 41.1388 35.8373C41.2843 35.9798 41.3931 36.1555 41.4558 36.3493C41.5185 36.5431 41.5333 36.7492 41.4989 36.95C41.4892 37.353 41.3405 37.7404 41.0782 38.0465C40.8158 38.3526 40.4558 38.5587 40.0589 38.63C39.631 38.5804 39.2336 38.3838 38.9344 38.0737C38.6353 37.7637 38.4531 37.3594 38.4189 36.93C38.4251 36.7294 38.4719 36.5321 38.5567 36.3501C38.6414 36.1681 38.7623 36.0053 38.912 35.8716C39.0617 35.7378 39.237 35.6359 39.4273 35.572C39.6176 35.5081 39.8189 35.4836 40.0189 35.5Z" fill="#FBFCFC"/>
</g>
<defs>
<clipPath id="clip0_87_532">
<rect width="79" height="79" fill="white" transform="translate(0.418945 0.5)"/>
</clipPath>
</defs>
</svg>
