<svg width="75" height="60" viewBox="0 0 75 60" fill="none" xmlns="http://www.w3.org/2000/svg">
<path d="M15.1172 25.9297L7.5 19.25H16.0547L21.9141 24.5234L31.5234 22.4141C30.4688 24.875 30 27.6875 30 30.5C30 33.4297 30.4688 36.125 31.5234 38.7031L21.9141 36.5938L16.0547 41.75H7.5L15.1172 35.1875L14.8828 35.0703C12.7734 34.6016 11.25 32.7266 11.25 30.5C11.25 28.3906 12.7734 26.5156 14.8828 26.0469L15.1172 25.9297ZM60 30.5C60 34.7188 56.6016 38 52.5 38C48.2812 38 45 34.7188 45 30.5C45 26.3984 48.2812 23 52.5 23C56.6016 23 60 26.3984 60 30.5ZM52.5 34.25C54.4922 34.25 56.25 32.6094 56.25 30.5C56.25 28.5078 54.4922 26.75 52.5 26.75C50.3906 26.75 48.75 28.5078 48.75 30.5C48.75 32.6094 50.3906 34.25 52.5 34.25Z" fill="#66C206"/>
<path d="M30 30.5C30 18.0781 39.9609 8 52.5 8C64.9219 8 75 18.0781 75 30.5C75 42.9219 64.9219 53 52.5 53C39.9609 53 30 42.9219 30 30.5ZM52.5 38C56.6016 38 60 34.7188 60 30.5C60 26.3984 56.6016 23 52.5 23C48.2812 23 45 26.3984 45 30.5C45 34.7188 48.2812 38 52.5 38ZM0 15.5C0 13.5078 1.64062 11.75 3.75 11.75H24.375C26.3672 11.75 28.125 13.5078 28.125 15.5C28.125 17.6094 26.3672 19.25 24.375 19.25H3.75C1.64062 19.25 0 17.6094 0 15.5ZM24.375 41.75C26.3672 41.75 28.125 43.5078 28.125 45.5C28.125 47.6094 26.3672 49.25 24.375 49.25H3.75C1.64062 49.25 0 47.6094 0 45.5C0 43.5078 1.64062 41.75 3.75 41.75H24.375Z" fill="#DAEDC7"/>
</svg>
